<?xml version="1.0" standalone="no"?>
<!DOCTYPE svg PUBLIC "-//W3C//DTD SVG 1.1//EN" "http://www.w3.org/Graphics/SVG/1.1/DTD/svg11.dtd" >
<svg xmlns="http://www.w3.org/2000/svg">
<metadata>
<json>
<![CDATA[
{
	"fontFamily": "primeicons",
	"majorVersion": 8,
	"minorVersion": 0,
	"copyright": "PrimeTek Informatics",
	"designer": "",
	"description": "Icon Library for Prime UI Libraries\nFont generated by IcoMoon.",
	"fontURL": "https://github.com/primefaces/primeicons",
	"license": "MIT",
	"licenseURL": "https://opensource.org/licenses/MIT",
	"version": "Version 8.0",
	"fontId": "primeicons",
	"psName": "primeicons",
	"subFamily": "Regular",
	"fullName": "primeicons"
}
]]>
</json>
</metadata>
<defs>
<font id="primeicons" horiz-adv-x="1024">
<font-face units-per-em="1024" ascent="960" descent="-64" />
<missing-glyph horiz-adv-x="1024" />
<glyph unicode="&#x20;" horiz-adv-x="512" d="" />
<glyph unicode="&#xe900;" glyph-name="chevron-left" data-tags="chevron-left, backward, previous, return, left" d="M612.849 731.15c14.996 14.996 39.306 14.996 54.303 0s14.996-39.304 0-54.3l-228.851-228.85 228.851-228.849c14.996-14.996 14.996-39.306 0-54.303s-39.306-14.996-54.303 0l-255.998 256c-14.996 14.996-14.996 39.305 0 54.301l255.998 256z" />
<glyph unicode="&#xe901;" glyph-name="chevron-right" data-tags="chevron-right, forward, next, right, proceed" d="M356.85 731.15c14.996 14.996 39.304 14.996 54.3 0l256.001-256c14.996-14.996 14.996-39.305 0-54.302l-256.001-256c-14.996-14.996-39.304-14.996-54.3 0s-14.996 39.306 0 54.303l228.852 228.849-228.852 228.85c-14.996 14.996-14.996 39.304 0 54.3z" />
<glyph unicode="&#xe902;" glyph-name="chevron-down" data-tags="chevron-down, down, fall, decrease, lower" d="M740.849 603.15c14.996 14.996 39.306 14.996 54.303 0s14.996-39.304 0-54.3l-256-256.001c-14.996-14.996-39.305-14.996-54.302 0l-256 256.001c-14.996 14.996-14.996 39.304 0 54.3s39.304 14.996 54.3 0l228.85-228.852 228.849 228.852z" />
<glyph unicode="&#xe903;" glyph-name="chevron-up" data-tags="chevron-up, up, increase, rise, elevate" d="M487.75 605.8c15.082 12.304 37.342 11.409 51.401-2.65l256-255.998c14.996-14.996 14.996-39.306 0-54.303s-39.306-14.996-54.303 0l-228.849 228.851-228.85-228.851c-14.996-14.996-39.304-14.996-54.3 0s-14.996 39.306 0 54.303l258.9 258.649z" />
<glyph unicode="&#xe904;" glyph-name="caret-left" data-tags="caret-left, previous, backward, left, return" d="M693.75 785.898c11.633 8.722 27.197 10.143 40.202 3.65 13.005-6.504 21.248-19.805 21.248-34.35v-614.398c0-14.546-8.243-27.848-21.248-34.35-13.005-6.492-28.57-5.074-40.202 3.651l-409.6 307.2c-9.659 7.25-15.35 18.616-15.35 30.7 0 12.079 5.69 23.446 15.35 30.698l409.6 307.2zM371.15 448l307.25-230.4v460.849l-307.25-230.449z" />
<glyph unicode="&#xe905;" glyph-name="caret-right" data-tags="caret-right, next, forward, right, proceed" d="M290.050 789.549c13.005 6.493 28.57 5.072 40.2-3.65l409.6-307.2c9.661-7.252 15.35-18.62 15.35-30.698 0-12.083-5.688-23.45-15.35-30.7l-409.6-307.2c-11.63-8.724-27.195-10.143-40.2-3.651-13.009 6.502-21.25 19.804-21.25 34.35v614.398c0 14.545 8.241 27.846 21.25 34.35zM345.6 217.6l307.2 230.4-307.2 230.449v-460.849z" />
<glyph unicode="&#xe906;" glyph-name="caret-down" data-tags="caret-down, collapse, down, fall, decrease" d="M819.2 691.2c14.546 0 27.848-8.241 34.35-21.25 6.492-13.005 5.074-28.57-3.651-40.2l-307.2-409.6c-7.25-9.661-18.616-15.35-30.7-15.35-12.079 0-23.446 5.688-30.698 15.35l-307.2 409.6c-8.722 11.63-10.143 27.195-3.65 40.2 6.504 13.009 19.805 21.25 34.35 21.25h614.398zM512 307.2l230.4 307.2h-460.798l230.398-307.2z" />
<glyph unicode="&#xe907;" glyph-name="caret-up" data-tags="caret-up, expand, up, rise, increase" d="M512 691.2c12.083 0 23.45-5.69 30.7-15.35l307.2-409.6c8.724-11.633 10.143-27.197 3.651-40.202-6.502-13.005-19.804-21.248-34.35-21.248h-614.398c-14.545 0-27.846 8.243-34.35 21.248-6.493 13.005-5.072 28.57 3.65 40.202l307.2 409.6 2.9 3.45c7.201 7.555 17.233 11.9 27.799 11.9zM281.602 281.6h460.798l-230.4 307.25-230.398-307.25z" />
<glyph unicode="&#xe908;" glyph-name="search" data-tags="search, find, query, lookup, discover" d="M449 896c212.637 0 385.038-172.368 385.048-385 0-92.491-32.691-177.309-87.050-243.7l201.754-201.748c14.986-14.996 14.991-39.306 0-54.303-14.996-14.991-39.306-14.986-54.303 0l-201.748 201.754c-66.391-54.359-151.209-87.050-243.7-87.050-212.632 0.010-385 172.411-385 385.048 0.013 212.624 172.376 384.987 385 385zM449 819.2c-170.208-0.013-308.187-137.991-308.2-308.2 0-170.218 137.983-308.238 308.2-308.248 170.228 0 308.248 138.020 308.248 308.248-0.010 170.216-138.030 308.2-308.248 308.2z" />
<glyph unicode="&#xe909;" glyph-name="check" data-tags="check, done, complete, ok, approve" horiz-adv-x="1088" d="M894.449 756.75c14.996 14.996 39.301 14.996 54.298 0s14.996-39.304 0-54.3l-563.199-563.201c-14.996-14.996-39.304-14.996-54.3 0l-256 256c-14.996 14.996-14.996 39.306 0 54.301 14.996 14.996 39.304 14.996 54.3 0l228.85-228.852 536.052 536.052z" />
<glyph unicode="&#xe90a;" glyph-name="check-circle" data-tags="check-circle, done, complete, ok, approve" d="M464.201 906.299c63.635 6.698 125.126-0.036 182.102-17.35 20.28-6.171 31.713-27.614 25.549-47.9-6.175-20.279-27.617-31.715-47.903-25.55-47.457 14.422-98.616 19.986-151.698 14.4-53.305-5.612-102.574-21.47-145.55-45.5-43.372-24.252-81.633-56.435-112.9-94.7-31.164-38.14-54.899-82.326-69.3-129.7-14.427-47.47-19.987-98.659-14.4-151.751 5.611-53.304 21.472-102.574 45.5-145.551 24.251-43.366 56.438-81.633 94.7-112.896 38.14-31.165 82.327-54.902 129.7-69.304 47.47-14.423 98.658-19.983 151.751-14.397 53.304 5.612 102.574 21.468 145.551 45.501 43.366 24.248 81.633 56.433 112.896 94.7 31.171 38.144 54.902 82.365 69.304 129.751 14.423 47.462 19.978 99.149 14.397 151.698-2.222 21.075 13.076 39.958 34.15 42.2 21.074 2.23 39.951-13.026 42.199-34.1 6.707-63.153 0.015-125.176-17.3-182.152-17.341-57.057-45.865-110.131-83.297-155.95-37.34-45.696-83.046-84.204-134.902-113.198-52.244-29.21-111.534-48.174-174.95-54.851-63.635-6.697-125.127 0.036-182.099 17.352-57.062 17.341-110.181 45.86-156 83.297-45.688 37.335-84.161 83.057-113.15 134.902-29.209 52.244-48.174 111.534-54.85 174.95-6.698 63.637 0.035 125.127 17.35 182.099 17.343 57.062 45.813 110.18 83.25 156 37.335 45.692 83.052 84.157 134.9 113.15 52.252 29.216 111.575 48.173 175 54.85zM868.603 807.699c14.996 14.989 39.306 14.993 54.298 0 14.996-14.994 14.991-39.303 0-54.3l-460.799-460.801c-14.996-14.996-39.304-14.996-54.3 0l-153.601 153.6c-14.995 14.998-14.995 39.305 0 54.301 14.996 14.989 39.306 14.993 54.3 0l126.45-126.452 433.652 433.652z" />
<glyph unicode="&#xe90b;" glyph-name="times" data-tags="times, close, cancel, delete, remove" d="M738.299 728.595c14.996 14.984 39.306 14.99 54.303 0 14.981-14.993 14.981-39.306 0-54.3l-226.299-226.296 226.299-226.299c14.976-15.002 14.986-39.311 0-54.303-14.991-14.986-39.306-14.976-54.303 0l-226.299 226.299-226.297-226.299c-14.993-14.981-39.306-14.981-54.3 0-14.99 14.996-14.985 39.306 0 54.303l226.298 226.299-226.298 226.296c-14.993 14.996-14.995 39.304 0 54.3 14.995 14.994 39.304 14.993 54.3 0l226.297-226.298 226.299 226.298z" />
<glyph unicode="&#xe90c;" glyph-name="times-circle" data-tags="times-circle, close, cancel, delete, times" d="M512 908.8c254.495 0 460.8-206.307 460.8-460.8 0-254.495-206.305-460.8-460.8-460.8-254.493 0-460.8 206.305-460.8 460.8 0 254.493 206.307 460.8 460.8 460.8zM512 832c-212.078 0-384-171.922-384-384 0-212.076 171.922-384 384-384 212.076 0 384 171.924 384 384 0 212.078-171.924 384-384 384zM638.449 628.75c14.996 14.996 39.306 14.996 54.303 0s14.996-39.304 0-54.3l-126.454-126.45 126.454-126.449c14.996-14.996 14.996-39.306 0-54.303s-39.306-14.996-54.303 0l-126.449 126.454-126.45-126.454c-14.996-14.996-39.304-14.996-54.3 0s-14.996 39.306 0 54.303l126.45 126.449-126.45 126.45c-14.996 14.996-14.996 39.304 0 54.3s39.304 14.996 54.3 0l126.45-126.45 126.449 126.45z" />
<glyph unicode="&#xe90d;" glyph-name="plus" data-tags="plus, add, increase, more, extra" d="M512 844.8c21.207 0 38.4-17.192 38.4-38.4v-320h320c21.207 0 38.4-17.192 38.4-38.4s-17.193-38.4-38.4-38.4h-320v-320c0-21.207-17.193-38.4-38.4-38.4s-38.4 17.193-38.4 38.4v320h-320c-21.208 0-38.4 17.193-38.4 38.4s17.192 38.4 38.4 38.4h320v320c0 21.208 17.192 38.4 38.4 38.4z" />
<glyph unicode="&#xe90e;" glyph-name="plus-circle" data-tags="plus-circle, add, increase, plus, more" d="M512 908.8c254.495 0 460.8-206.307 460.8-460.8 0-254.495-206.305-460.8-460.8-460.8-254.493 0-460.8 206.305-460.8 460.8 0 254.493 206.307 460.8 460.8 460.8zM512 832c-212.078 0-384-171.922-384-384 0-212.076 171.922-384 384-384 212.076 0 384 171.924 384 384 0 212.078-171.924 384-384 384zM512 691.2c21.207 0 38.4-17.192 38.4-38.4v-166.4h166.4c21.207 0 38.4-17.192 38.4-38.4s-17.193-38.4-38.4-38.4h-166.4v-166.4c0-21.207-17.193-38.4-38.4-38.4s-38.4 17.193-38.4 38.4v166.4h-166.4c-21.208 0-38.4 17.193-38.4 38.4s17.192 38.4 38.4 38.4h166.4v166.4c0 21.208 17.192 38.4 38.4 38.4z" />
<glyph unicode="&#xe90f;" glyph-name="minus" data-tags="minus, remove, subtract, decrease, less" d="M870.4 486.4c21.207 0 38.4-17.192 38.4-38.4s-17.193-38.4-38.4-38.4h-716.8c-21.208 0-38.4 17.193-38.4 38.4s17.192 38.4 38.4 38.4h716.8z" />
<glyph unicode="&#xe910;" glyph-name="minus-circle" data-tags="minus-circle, remove, subtract, decrease, minus" d="M512 908.8c254.495 0 460.8-206.307 460.8-460.8 0-254.495-206.305-460.8-460.8-460.8-254.493 0-460.8 206.305-460.8 460.8 0 254.493 206.307 460.8 460.8 460.8zM512 832c-212.078 0-384-171.922-384-384 0-212.076 171.922-384 384-384 212.076 0 384 171.924 384 384 0 212.078-171.924 384-384 384zM716.8 486.4c21.207 0 38.4-17.192 38.4-38.4s-17.193-38.4-38.4-38.4h-409.6c-21.208 0-38.4 17.193-38.4 38.4s17.192 38.4 38.4 38.4h409.6z" />
<glyph unicode="&#xe911;" glyph-name="circle-on" data-tags="circle-on, deprecate, on, enable, active, start" d="M512 908.8c254.495 0 460.8-206.307 460.8-460.8 0-254.495-206.305-460.8-460.8-460.8-254.493 0-460.8 206.305-460.8 460.8 0 254.493 206.307 460.8 460.8 460.8z" />
<glyph unicode="&#xe912;" glyph-name="circle-off" data-tags="circle-off, deprecate, off, disable, inactive, stop" d="M896 448c0 212.078-171.924 384-384 384-212.078 0-384-171.922-384-384 0-212.076 171.922-384 384-384 212.076 0 384 171.924 384 384zM972.8 448c0-254.495-206.305-460.8-460.8-460.8-254.493 0-460.8 206.305-460.8 460.8 0 254.493 206.307 460.8 460.8 460.8 254.495 0 460.8-206.307 460.8-460.8z" />
<glyph unicode="&#xe913;" glyph-name="sort-down" data-tags="sort-down, descending, down, decrease, lower" d="M870.4 665.6c15.534 0 29.558-9.351 35.502-23.7 5.939-14.348 2.632-30.868-8.351-41.85l-358.4-358.402c-14.996-14.996-39.305-14.996-54.301 0l-358.4 358.402c-10.981 10.981-14.291 27.502-8.35 41.85 5.944 14.349 19.969 23.7 35.5 23.7h716.799zM512 323.098l265.702 265.702h-531.402l265.699-265.702z" />
<glyph unicode="&#xe914;" glyph-name="sort-up" data-tags="sort-up, ascending, up, increase, elevate" d="M487.751 657c15.082 12.304 37.341 11.409 51.401-2.65l358.4-358.399c10.982-10.982 14.29-27.505 8.351-41.851-5.944-14.351-19.968-23.7-35.502-23.7h-716.799c-15.531 0-29.556 9.349-35.5 23.7-5.941 14.346-2.631 30.868 8.35 41.851l361.3 361.049zM246.301 307.2h531.402l-265.702 265.7-265.699-265.7z" />
<glyph unicode="&#xe915;" glyph-name="sort" data-tags="sort, order, sequence" d="M819.19 384c15.524 0 29.553-9.354 35.497-23.7s2.632-30.868-8.351-41.851l-307.2-307.2c-14.996-14.991-39.305-14.996-54.3 0l-307.201 307.2c-10.973 10.982-14.289 27.51-8.35 41.851 5.942 14.346 19.975 23.695 35.5 23.7h614.405zM511.987 92.698l214.5 214.502h-429.001l214.501-214.502zM487.736 887.405c15.079 12.301 37.34 11.399 51.4-2.65l307.2-307.203c10.982-10.981 14.295-27.502 8.351-41.85s-19.968-23.7-35.497-23.7h-614.405c-15.525 0.007-29.558 9.356-35.5 23.7-5.934 14.344-2.625 30.872 8.35 41.85l310.101 309.853zM297.486 588.803h429.001l-214.5 214.502-214.501-214.502z" />
<glyph unicode="&#xe916;" glyph-name="step-backward" data-tags="step-backward, back, previous, return, rewind" d="M307.2 844.803c21.202 0 38.391-17.2 38.4-38.4v-316.902l344.049 344.052c10.982 10.974 27.51 14.287 41.851 8.35 14.346-5.941 23.695-19.975 23.7-35.5v-716.803c0-15.529-9.354-29.558-23.7-35.502-14.346-5.939-30.868-2.632-41.851 8.351l-344.049 344.054v-316.902c0-21.207-17.192-38.4-38.4-38.4s-38.4 17.193-38.4 38.4v716.803c0.009 21.2 17.198 38.4 38.4 38.4zM412.7 448.001l265.7-265.703v531.405l-265.7-265.701z" />
<glyph unicode="&#xe917;" glyph-name="step-forward" data-tags="step-forward, next, proceed, forward, advance" d="M716.8 844.803c21.202 0 38.39-17.2 38.4-38.4v-716.803c0-21.207-17.193-38.4-38.4-38.4s-38.4 17.193-38.4 38.4v316.902l-344.050-344.054c-10.981-10.982-27.502-14.29-41.85-8.351-14.346 5.944-23.7 19.973-23.7 35.502v716.803c0.007 15.525 9.356 29.559 23.7 35.5 14.343 5.937 30.87 2.623 41.85-8.35l344.050-344.052v316.902c0.010 21.2 17.198 38.4 38.4 38.4zM345.6 182.298l265.702 265.703-265.702 265.701v-531.405z" />
<glyph unicode="&#xe918;" glyph-name="th-large" data-tags="th-large, grid, layout, blocks, sections" d="M358.4 409.6c63.623 0 115.2-51.579 115.2-115.2v-153.6c0-63.621-51.577-115.2-115.2-115.2h-153.6c-63.623 0-115.2 51.579-115.2 115.2v153.6c0 63.621 51.577 115.2 115.2 115.2h153.6zM819.2 409.6c63.621 0 115.2-51.579 115.2-115.2v-153.6c0-63.621-51.579-115.2-115.2-115.2h-153.6c-63.621 0-115.2 51.579-115.2 115.2v153.6c0 63.621 51.579 115.2 115.2 115.2h153.6zM204.8 332.8c-21.208 0-38.4-17.193-38.4-38.4v-153.6c0-21.207 17.192-38.4 38.4-38.4h153.6c21.208 0 38.4 17.193 38.4 38.4v153.6c0 21.207-17.192 38.4-38.4 38.4h-153.6zM665.6 332.8c-21.207 0-38.4-17.193-38.4-38.4v-153.6c0-21.207 17.193-38.4 38.4-38.4h153.6c21.207 0 38.4 17.193 38.4 38.4v153.6c0 21.207-17.193 38.4-38.4 38.4h-153.6zM358.4 870.4c63.623 0 115.2-51.577 115.2-115.2v-153.6c0-63.623-51.577-115.2-115.2-115.2h-153.6c-63.623 0-115.2 51.577-115.2 115.2v153.6c0 63.623 51.577 115.2 115.2 115.2h153.6zM819.2 870.4c63.621 0 115.2-51.577 115.2-115.2v-153.6c0-63.623-51.579-115.2-115.2-115.2h-153.6c-63.621 0-115.2 51.577-115.2 115.2v153.6c0 63.623 51.579 115.2 115.2 115.2h153.6zM204.8 793.6c-21.208 0-38.4-17.192-38.4-38.4v-153.6c0-21.208 17.192-38.4 38.4-38.4h153.6c21.208 0 38.4 17.192 38.4 38.4v153.6c0 21.208-17.192 38.4-38.4 38.4h-153.6zM665.6 793.6c-21.207 0-38.4-17.192-38.4-38.4v-153.6c0-21.208 17.193-38.4 38.4-38.4h153.6c21.207 0 38.4 17.192 38.4 38.4v153.6c0 21.208-17.193 38.4-38.4 38.4h-153.6z" />
<glyph unicode="&#xe919;" glyph-name="arrow-down" data-tags="arrow-down, download, decrease, down, lower" d="M512 844.8c21.207-0.002 38.4-17.193 38.4-38.4v-624.102l241.654 241.654c14.996 14.991 39.301 14.991 54.298 0 14.996-14.996 14.996-39.306 0-54.303l-307.2-307.2c-14.996-14.996-39.304-14.996-54.301 0l-307.201 307.2c-14.996 14.996-14.996 39.306 0 54.303 14.996 14.991 39.305 14.991 54.3 0l241.651-241.654v624.102c0 21.208 17.192 38.4 38.399 38.4z" />
<glyph unicode="&#xe91a;" glyph-name="arrow-left" data-tags="arrow-left, back, previous, left, return" d="M433.65 782.35c14.996 14.996 39.304 14.996 54.3 0 14.993-14.996 14.995-39.305 0-54.3l-241.65-241.65h624.1c21.207-0.002 38.4-17.193 38.4-38.399s-17.193-38.4-38.4-38.4h-624.1l241.65-241.654c14.993-14.991 14.995-39.301 0-54.298s-39.304-14.991-54.3 0l-307.2 307.2c-14.996 14.996-14.996 39.305 0 54.301l307.2 307.201z" />
<glyph unicode="&#xe91b;" glyph-name="arrow-right" data-tags="arrow-right, next, forward, right, proceed" d="M536.049 782.35c14.996 14.996 39.306 14.996 54.303 0l307.2-307.201c14.996-14.996 14.996-39.304 0-54.301l-307.2-307.2c-14.996-14.996-39.306-14.996-54.303 0-14.991 14.996-14.991 39.306 0 54.298l241.654 241.654h-624.102c-21.207 0-38.398 17.193-38.4 38.4 0 21.207 17.192 38.399 38.4 38.399h624.102l-241.654 241.65c-14.991 14.996-14.991 39.304 0 54.3z" />
<glyph unicode="&#xe91c;" glyph-name="arrow-up" data-tags="arrow-up, upload, increase, up, elevate" d="M487.751 836.203c15.082 12.299 37.341 11.407 51.401-2.65l307.2-307.201c14.996-14.995 14.991-39.304 0-54.3-14.996-14.996-39.301-14.996-54.298 0l-241.654 241.651v-624.102c0-21.207-17.193-38.4-38.4-38.4s-38.399 17.193-38.399 38.4v624.102l-241.651-241.651c-14.996-14.996-39.304-14.996-54.3 0-14.995 14.996-14.996 39.304 0 54.3l310.101 309.851z" />
<glyph unicode="&#xe91d;" glyph-name="bars" data-tags="bars, menu, options, list, categories, hamburger" d="M870.4 256c21.207 0 38.4-17.193 38.4-38.4s-17.193-38.4-38.4-38.4h-716.8c-21.208 0-38.4 17.193-38.4 38.4s17.192 38.4 38.4 38.4h716.8zM870.4 486.4c21.207 0 38.4-17.192 38.4-38.4s-17.193-38.4-38.4-38.4h-716.8c-21.208 0-38.4 17.193-38.4 38.4s17.192 38.4 38.4 38.4h716.8zM870.4 716.8c21.207 0 38.4-17.192 38.4-38.4s-17.193-38.4-38.4-38.4h-716.8c-21.208 0-38.4 17.192-38.4 38.4s17.192 38.4 38.4 38.4h716.8z" />
<glyph unicode="&#xe91e;" glyph-name="arrow-circle-down" data-tags="arrow-circle-down, download, decrease, down, lower" d="M512 908.8c254.495 0 460.8-206.307 460.8-460.8 0-254.495-206.305-460.8-460.8-460.8-254.493 0-460.8 206.305-460.8 460.8 0 254.493 206.307 460.8 460.8 460.8zM512 832c-212.078 0-384-171.922-384-384 0-212.076 171.922-384 384-384 212.076 0 384 171.924 384 384 0 212.078-171.924 384-384 384zM512 691.2c21.207 0 38.4-17.192 38.4-38.4v-316.902l139.249 139.252c14.996 14.996 39.306 14.996 54.303 0s14.996-39.305 0-54.301l-204.8-204.8c-2.488-2.488-5.335-4.388-8.253-6.047-1.388-0.794-2.755-1.633-4.25-2.253-1.638-0.676-3.343-1.111-5.048-1.551-0.671-0.174-1.316-0.461-2.002-0.599-0.282-0.056-0.563-0.097-0.85-0.148-2.191-0.389-4.444-0.65-6.748-0.65-2.323 0-4.59 0.256-6.8 0.65-0.284 0.051-0.568 0.092-0.85 0.148-0.686 0.138-1.329 0.425-2 0.599-1.702 0.445-3.41 0.87-5.050 1.551-1.492 0.62-2.86 1.454-4.25 2.253-2.902 1.659-5.722 3.569-8.2 6.047l-204.8 204.8c-14.996 14.996-14.996 39.305 0 54.301s39.304 14.996 54.3 0l139.25-139.252v316.902c0 21.208 17.192 38.4 38.4 38.4z" />
<glyph unicode="&#xe91f;" glyph-name="arrow-circle-left" data-tags="arrow-circle-left, back, previous, left, return" d="M512 908.8c254.495 0 460.8-206.307 460.8-460.8 0-254.495-206.305-460.8-460.8-460.8-254.493 0-460.8 206.305-460.8 460.8 0 254.493 206.307 460.8 460.8 460.8zM512 832c-212.078 0-384-171.922-384-384 0-212.076 171.922-384 384-384 212.076 0 384 171.924 384 384 0 212.078-171.924 384-384 384zM484.85 679.95c14.996 14.996 39.305 14.996 54.301 0s14.996-39.304 0-54.3l-139.251-139.25h316.9c21.207 0 38.4-17.192 38.4-38.4s-17.193-38.4-38.4-38.4h-316.9l139.251-139.249c14.996-14.996 14.996-39.306 0-54.303s-39.305-14.996-54.301 0l-204.8 204.8c-2.495 2.493-4.435 5.325-6.1 8.253-0.792 1.388-1.634 2.755-2.25 4.25-1.055 2.56-1.822 5.207-2.3 7.9-0.389 2.191-0.6 4.444-0.6 6.748 0 2.32 0.206 4.593 0.6 6.8 0.466 2.602 1.194 5.17 2.2 7.65l0.2 0.5c0.714 1.688 1.662 3.246 2.6 4.8 1.577 2.615 3.393 5.144 5.65 7.4l204.8 204.8z" />
<glyph unicode="&#xe920;" glyph-name="arrow-circle-right" data-tags="arrow-circle-right, next, forward, right, proceed" d="M512 908.8c254.495 0 460.8-206.307 460.8-460.8 0-254.495-206.305-460.8-460.8-460.8-254.493 0-460.8 206.305-460.8 460.8 0 254.493 206.307 460.8 460.8 460.8zM512 832c-212.078 0-384-171.922-384-384 0-212.076 171.922-384 384-384 212.076 0 384 171.924 384 384 0 212.078-171.924 384-384 384zM484.85 679.95c14.996 14.996 39.305 14.996 54.301 0l204.8-204.8c2.253-2.256 4.070-4.785 5.647-7.4 0.983-1.625 1.915-3.279 2.652-5.050 1.060-2.56 1.818-5.207 2.299-7.9 0.394-2.21 0.65-4.476 0.65-6.8 0-2.304-0.261-4.557-0.65-6.748-0.481-2.698-1.244-5.34-2.299-7.9-0.62-1.495-1.459-2.862-2.253-4.25-1.659-2.918-3.558-5.765-6.047-8.253l-204.8-204.8c-14.996-14.996-39.305-14.996-54.301 0s-14.996 39.306 0 54.303l139.252 139.249h-316.902c-21.208 0-38.4 17.193-38.4 38.4s17.192 38.4 38.4 38.4h316.902l-139.252 139.25c-14.996 14.996-14.996 39.304 0 54.3z" />
<glyph unicode="&#xe921;" glyph-name="arrow-circle-up" data-tags="arrow-circle-up, upload, increase, up, elevate" d="M512 908.8c254.495 0 460.8-206.307 460.8-460.8 0-254.495-206.305-460.8-460.8-460.8-254.493 0-460.8 206.305-460.8 460.8 0 254.493 206.307 460.8 460.8 460.8zM512 832c-212.078 0-384-171.922-384-384 0-212.076 171.922-384 384-384 212.076 0 384 171.924 384 384 0 212.078-171.924 384-384 384zM513.3 691.15c0.333-0.011 0.666-0.030 0.998-0.050 1.997-0.118 3.948-0.389 5.852-0.8 1.705-0.37 3.348-0.947 4.997-1.55 0.64-0.234 1.331-0.334 1.951-0.6 0.978-0.417 1.853-1.048 2.801-1.55 1.219-0.647 2.463-1.23 3.599-2 1.992-1.348 3.891-2.888 5.652-4.65l204.8-204.8c14.996-14.996 14.996-39.305 0-54.301s-39.306-14.996-54.303 0l-139.249 139.251v-316.9c0-21.207-17.193-38.4-38.4-38.4s-38.4 17.193-38.4 38.4v316.9l-139.25-139.251c-14.996-14.996-39.304-14.996-54.3 0s-14.996 39.305 0 54.301l204.8 204.8 2.9 2.65c0.522 0.426 1.111 0.756 1.65 1.15 0.796 0.582 1.61 1.129 2.45 1.65 1.223 0.757 2.466 1.443 3.75 2.050 0.93 0.441 1.88 0.833 2.85 1.2 1.412 0.531 2.846 0.94 4.3 1.3 1.027 0.254 2.042 0.58 3.1 0.75 0.566 0.091 1.132 0.185 1.7 0.25 1.46 0.168 2.945 0.25 4.45 0.25 0.435 0 0.87-0.036 1.3-0.050z" />
<glyph unicode="&#xe922;" glyph-name="exclamation-triangle" data-tags="exclamation-triangle, warning, alert, danger, caution" d="M512 844.8c13.778-0.003 26.516-7.388 33.352-19.35l409.6-716.798c6.784-11.878 6.712-26.465-0.148-38.303-6.871-11.837-19.517-19.149-33.203-19.149h-819.2c-13.688 0-26.329 7.311-33.2 19.149-6.862 11.837-6.936 26.419-0.15 38.303l409.601 716.798c6.837 11.963 19.571 19.35 33.35 19.35zM168.6 128h686.803l-343.404 601-343.4-601zM512 281.6c21.207-0.005 38.4-17.193 38.4-38.4v-25.6c0-21.207-17.193-38.395-38.4-38.4-21.207 0-38.399 17.193-38.399 38.4v25.6c0 21.207 17.192 38.4 38.399 38.4zM512 588.8c21.207-0.004 38.4-17.194 38.4-38.4v-179.2c0-21.207-17.193-38.395-38.4-38.4-21.207 0-38.399 17.193-38.399 38.4v179.2c0 21.208 17.192 38.4 38.399 38.4z" />
<glyph unicode="&#xe923;" glyph-name="info" data-tags="info, information, help, details" d="M512 588.8c21.207 0 38.4-17.192 38.4-38.4v-358.4c0-21.207-17.193-38.4-38.4-38.4s-38.4 17.193-38.4 38.4v358.4c0 21.208 17.192 38.4 38.4 38.4zM512 742.4c21.207 0 38.4-17.192 38.4-38.4v-25.6c0-21.208-17.193-38.4-38.4-38.4s-38.4 17.192-38.4 38.4v25.6c0 21.208 17.192 38.4 38.4 38.4z" />
<glyph unicode="&#xe924;" glyph-name="info-circle" data-tags="info-circle, information, help, details" d="M512 908.8c254.495 0 460.8-206.307 460.8-460.8 0-254.495-206.305-460.8-460.8-460.8-254.493 0-460.8 206.305-460.8 460.8 0 254.493 206.307 460.8 460.8 460.8zM512 832c-212.078 0-384-171.922-384-384 0-212.076 171.922-384 384-384 212.076 0 384 171.924 384 384 0 212.078-171.924 384-384 384zM512 537.6c21.207 0 38.4-17.192 38.4-38.4v-256c0-21.207-17.193-38.4-38.4-38.4s-38.4 17.193-38.4 38.4v256c0 21.208 17.192 38.4 38.4 38.4zM512 691.2c21.207 0 38.4-17.192 38.4-38.4v-25.6c0-21.208-17.193-38.4-38.4-38.4s-38.4 17.192-38.4 38.4v25.6c0 21.208 17.192 38.4 38.4 38.4z" />
<glyph unicode="&#xe925;" glyph-name="home" data-tags="home, house, homepage, shelter, building" d="M488.966 837.083c13.654 10.24 32.445 10.24 46.1 0l409.605-307.2c16.937-12.731 20.367-36.795 7.649-53.75-12.723-16.941-36.792-20.353-53.75-7.65l-40.95 30.75v-409.648c-0.010-21.197-17.208-38.395-38.4-38.4h-614.407c-21.201 0-38.39 17.198-38.401 38.4v409.648l-40.95-30.75c-16.954-12.714-41.019-9.286-53.75 7.65-12.721 16.961-9.302 41.022 7.65 53.75l409.603 307.2zM243.214 556.832v-428.848h128.001v320c0 21.206 17.192 38.398 38.401 38.398h204.8c21.202-0.007 38.4-17.197 38.4-38.398v-320h128.005v428.848l-268.805 201.6-268.802-201.6zM448.015 127.985h128v281.6h-128v-281.6z" />
<glyph unicode="&#xe926;" glyph-name="spinner" data-tags="spinner, loading, process, wait, buffering" d="M51.2 448c0 254.68 206.12 460.8 460.8 460.8 122.394 0 233.574-48.092 316.099-125.6 15.452-14.519 16.215-38.843 1.7-54.3-14.515-15.458-38.84-16.216-54.298-1.7-69.028 64.828-161.638 104.8-263.501 104.8-212.264 0-384-171.736-384-384s171.736-384 384-384c212.265 0 384 171.735 384 384 0 21.208 17.193 38.4 38.4 38.4s38.4-17.192 38.4-38.4c0-254.679-206.121-460.8-460.8-460.8s-460.8 206.121-460.8 460.8z" />
<glyph unicode="&#xe927;" glyph-name="calendar" data-tags="calendar, date, event, schedule, day" d="M665.6 947.2c21.207 0 38.4-17.192 38.4-38.4v-64h64c77.763 0 140.8-63.038 140.8-140.8v-563.2c0-77.763-63.037-140.8-140.8-140.8h-512c-77.762 0-140.8 63.037-140.8 140.8v563.2c0 77.762 63.038 140.8 140.8 140.8h64v64c0 21.208 17.192 38.4 38.4 38.4s38.4-17.192 38.4-38.4v-64h230.4v64c0 21.208 17.193 38.4 38.4 38.4zM192 140.8c0-35.348 28.654-64 64-64h512c35.348 0 64 28.652 64 64v345.6h-640v-345.6zM256 768c-35.346 0-64-28.654-64-64v-140.8h640v140.8c0 35.346-28.652 64-64 64h-64v-64c0-21.208-17.193-38.4-38.4-38.4s-38.4 17.192-38.4 38.4v64h-230.4v-64c0-21.208-17.192-38.4-38.4-38.4s-38.4 17.192-38.4 38.4v64h-64z" />
<glyph unicode="&#xe928;" glyph-name="chevron-circle-left" data-tags="chevron-circle-left, back, return, left, previous" d="M512 908.8c254.495 0 460.8-206.307 460.8-460.8 0-254.495-206.305-460.8-460.8-460.8-254.493 0-460.8 206.305-460.8 460.8 0 254.493 206.307 460.8 460.8 460.8zM512 832c-212.078 0-384-171.922-384-384 0-212.076 171.922-384 384-384 212.076 0 384 171.924 384 384 0 212.078-171.924 384-384 384zM587.249 679.95c14.996 14.996 39.306 14.996 54.303 0s14.996-39.304 0-54.3l-177.651-177.65 177.651-177.649c14.996-14.996 14.996-39.306 0-54.303s-39.306-14.996-54.303 0l-204.798 204.8c-14.996 14.996-14.996 39.305 0 54.301l204.798 204.8z" />
<glyph unicode="&#xe929;" glyph-name="chevron-circle-down" data-tags="chevron-circle-down, download, decrease, down, lower" d="M512 908.8c254.495 0 460.8-206.307 460.8-460.8 0-254.495-206.305-460.8-460.8-460.8-254.493 0-460.8 206.305-460.8 460.8 0 254.493 206.307 460.8 460.8 460.8zM512 832c-212.078 0-384-171.922-384-384 0-212.076 171.922-384 384-384 212.076 0 384 171.924 384 384 0 212.078-171.924 384-384 384zM689.649 577.55c14.996 14.996 39.306 14.996 54.303 0s14.996-39.304 0-54.3l-204.8-204.802c-14.996-14.996-39.305-14.996-54.301 0l-204.8 204.802c-14.996 14.996-14.996 39.304 0 54.3s39.304 14.996 54.3 0l177.65-177.652 177.649 177.652z" />
<glyph unicode="&#xe92a;" glyph-name="chevron-circle-right" data-tags="chevron-circle-right, next, proceed, right, forward" d="M512 908.8c254.495 0 460.8-206.307 460.8-460.8 0-254.495-206.305-460.8-460.8-460.8-254.493 0-460.8 206.305-460.8 460.8 0 254.493 206.307 460.8 460.8 460.8zM512 832c-212.078 0-384-171.922-384-384 0-212.076 171.922-384 384-384 212.076 0 384 171.924 384 384 0 212.078-171.924 384-384 384zM382.45 679.95c14.996 14.996 39.304 14.996 54.3 0l204.802-204.8c14.996-14.996 14.996-39.305 0-54.301l-204.802-204.8c-14.996-14.996-39.304-14.996-54.3 0s-14.996 39.306 0 54.303l177.652 177.649-177.652 177.65c-14.996 14.996-14.996 39.304 0 54.3z" />
<glyph unicode="&#xe92b;" glyph-name="chevron-circle-up" data-tags="chevron-circle-up, upload, increase, up, elevate" d="M512 908.8c254.495 0 460.8-206.307 460.8-460.8 0-254.495-206.305-460.8-460.8-460.8-254.493 0-460.8 206.305-460.8 460.8 0 254.493 206.307 460.8 460.8 460.8zM512 832c-212.078 0-384-171.922-384-384 0-212.076 171.922-384 384-384 212.076 0 384 171.924 384 384 0 212.078-171.924 384-384 384zM487.75 580.2c15.082 12.304 37.342 11.41 51.401-2.65l204.8-204.798c14.996-14.996 14.996-39.306 0-54.303s-39.306-14.996-54.303 0l-177.649 177.651-177.65-177.651c-14.996-14.996-39.304-14.996-54.3 0s-14.996 39.306 0 54.303l204.8 204.798 2.9 2.65z" />
<glyph unicode="&#xe92c;" glyph-name="angle-double-down" data-tags="angle-double-down, fast-fall, down, decrease, lower" d="M664.054 423.951c14.991 14.991 39.301 14.991 54.298 0 14.991-14.996 14.996-39.306 0-54.303l-179.2-179.2c-14.996-14.996-39.304-14.991-54.301 0l-179.201 179.2c-14.996 14.996-14.996 39.306 0 54.303 14.996 14.991 39.304 14.991 54.3 0l152.050-152.054 152.054 152.054zM664.054 705.55c14.991 14.996 39.301 14.996 54.298 0 14.991-14.996 14.996-39.305 0-54.3l-179.2-179.201c-14.996-14.995-39.304-14.993-54.301 0l-179.201 179.201c-14.996 14.996-14.996 39.304 0 54.3s39.304 14.996 54.3 0l152.050-152.051 152.054 152.051z" />
<glyph unicode="&#xe92d;" glyph-name="angle-double-left" data-tags="angle-double-left, fast-return, left, back, previous" d="M433.651 654.35c14.996 14.996 39.304 14.996 54.3 0 14.993-14.996 14.995-39.305 0-54.3l-152.050-152.050 152.050-152.054c14.993-14.996 14.995-39.301 0-54.298s-39.304-14.991-54.3 0l-179.201 179.2c-14.996 14.996-14.996 39.304 0 54.301l179.201 179.201zM715.254 654.35c14.991 14.996 39.301 14.996 54.298 0 14.991-14.996 14.996-39.305 0-54.3l-152.049-152.050 152.049-152.054c14.991-14.996 14.996-39.301 0-54.298s-39.301-14.991-54.298 0l-179.205 179.2c-14.991 14.996-14.991 39.304 0 54.301l179.205 179.201z" />
<glyph unicode="&#xe92e;" glyph-name="angle-double-right" data-tags="angle-double-right, fast-proceed, right, next, forward" d="M254.45 654.35c14.996 14.996 39.304 14.996 54.3 0l179.201-179.201c14.993-14.996 14.995-39.304 0-54.301l-179.201-179.2c-14.995-14.996-39.304-14.991-54.3 0-14.996 14.996-14.996 39.306 0 54.298l152.051 152.054-152.051 152.050c-14.996 14.996-14.996 39.304 0 54.3zM536.049 654.35c14.996 14.996 39.306 14.996 54.303 0l179.2-179.201c14.991-14.996 14.996-39.304 0-54.301l-179.2-179.2c-14.996-14.996-39.306-14.991-54.303 0-14.996 14.996-14.996 39.306 0 54.298l152.054 152.054-152.054 152.050c-14.996 14.996-14.996 39.304 0 54.3z" />
<glyph unicode="&#xe92f;" glyph-name="angle-double-up" data-tags="angle-double-up, fast-rise, lift, double-up, increase" d="M487.751 426.604c15.082 12.298 37.341 11.407 51.401-2.652l179.2-179.2c14.996-14.996 14.991-39.306 0-54.303-14.996-14.996-39.301-14.996-54.298 0l-152.054 152.054-152.050-152.054c-14.996-14.996-39.304-14.996-54.3 0s-14.996 39.306 0 54.303l179.201 179.2 2.9 2.652zM487.751 708.203c15.082 12.299 37.341 11.407 51.401-2.65l179.2-179.201c14.996-14.994 14.991-39.304 0-54.3-14.996-14.996-39.301-14.996-54.298 0l-152.054 152.051-152.050-152.051c-14.996-14.996-39.304-14.996-54.3 0s-14.996 39.305 0 54.3l179.201 179.201 2.9 2.65z" />
<glyph unicode="&#xe930;" glyph-name="angle-down" data-tags="angle-down, fall, down, decrease, lower" d="M664.049 564.75c14.996 14.996 39.306 14.996 54.303 0s14.996-39.304 0-54.3l-179.2-179.201c-14.996-14.996-39.305-14.996-54.301 0l-179.2 179.201c-14.996 14.996-14.996 39.304 0 54.3s39.304 14.996 54.3 0l152.050-152.052 152.049 152.052z" />
<glyph unicode="&#xe931;" glyph-name="angle-left" data-tags="angle-left, back, return, left, previous" d="M574.449 654.35c14.996 14.996 39.306 14.996 54.303 0s14.996-39.304 0-54.3l-152.052-152.050 152.052-152.049c14.996-14.996 14.996-39.306 0-54.303s-39.306-14.996-54.303 0l-179.199 179.2c-14.996 14.996-14.996 39.305 0 54.301l179.199 179.2z" />
<glyph unicode="&#xe932;" glyph-name="angle-right" data-tags="angle-right, next, proceed, right, forward" d="M395.25 654.35c14.996 14.996 39.304 14.996 54.3 0l179.202-179.2c14.996-14.996 14.996-39.305 0-54.301l-179.202-179.2c-14.996-14.996-39.304-14.996-54.3 0s-14.996 39.306 0 54.303l152.048 152.049-152.048 152.050c-14.996 14.996-14.996 39.304 0 54.3z" />
<glyph unicode="&#xe933;" glyph-name="angle-up" data-tags="angle-up, rise, lift, up, increase" d="M487.75 567.4c15.082 12.304 37.342 11.409 51.401-2.65l179.2-179.199c14.996-14.996 14.996-39.306 0-54.303s-39.306-14.996-54.303 0l-152.049 152.052-152.050-152.052c-14.996-14.996-39.304-14.996-54.3 0s-14.996 39.306 0 54.303l179.2 179.199 2.9 2.65z" />
<glyph unicode="&#xe934;" glyph-name="upload" data-tags="upload, send, transfer, give, provide" d="M921.6 332.8c21.207 0 38.4-17.193 38.4-38.4v-153.6c0-73.185-54.067-140.8-129.551-140.8h-636.899c-75.482 0-129.55 67.615-129.55 140.8v153.6c0 21.207 17.192 38.4 38.4 38.4s38.4-17.193 38.4-38.4v-153.6c0-39.455 27.879-64 52.75-64h636.899c24.873 0 52.751 24.545 52.751 64v153.6c0 21.207 17.193 38.4 38.4 38.4zM513.3 895.95c0.333-0.011 0.666-0.030 0.998-0.050 1.997-0.118 3.948-0.389 5.852-0.8 1.705-0.37 3.348-0.947 4.997-1.55 0.64-0.234 1.331-0.334 1.951-0.6 0.978-0.417 1.853-1.048 2.801-1.55 1.219-0.647 2.463-1.23 3.599-2 1.992-1.348 3.891-2.888 5.652-4.65l204.8-204.8c14.996-14.996 14.996-39.304 0-54.3s-39.306-14.996-54.303 0l-139.249 139.25v-470.5c0-21.207-17.193-38.4-38.4-38.4s-38.4 17.193-38.4 38.4v470.5l-139.25-139.25c-14.996-14.996-39.304-14.996-54.3 0s-14.996 39.304 0 54.3l204.8 204.8 2.9 2.65c0.522 0.426 1.111 0.756 1.65 1.15 0.796 0.582 1.61 1.129 2.45 1.65 1.223 0.757 2.466 1.443 3.75 2.050 0.93 0.441 1.88 0.833 2.85 1.2 1.412 0.531 2.846 0.94 4.3 1.3 1.027 0.254 2.042 0.58 3.1 0.75 0.566 0.091 1.132 0.185 1.7 0.25 1.46 0.168 2.945 0.25 4.45 0.25 0.435 0 0.87-0.036 1.3-0.050z" />
<glyph unicode="&#xe935;" glyph-name="ban" data-tags="ban, block, stop, deny, prohibit" d="M512 908.8c254.495 0 460.8-206.307 460.8-460.8 0-254.495-206.305-460.8-460.8-460.8-254.493 0-460.8 206.305-460.8 460.8 0 254.493 206.307 460.8 460.8 460.8zM214.7 691c-54.171-66.196-86.7-150.791-86.7-243 0-212.076 171.922-384 384-384 92.206 0 176.753 32.584 242.949 86.748l-540.249 540.252zM512 832c-92.209 0-176.803-32.529-243-86.7l540.252-540.249c54.164 66.196 86.748 150.743 86.748 242.949 0 212.078-171.924 384-384 384z" />
<glyph unicode="&#xe936;" glyph-name="star-fill" data-tags="star-fill, favorite, rate, like, full-star" d="M512.015 896c14.612-0.006 27.986-8.295 34.452-21.4l124.099-251.65 277.55-40.2c14.454-2.102 26.476-12.213 31.002-26.1 4.516-13.892 0.753-29.143-9.702-39.35l-200.648-195.8 47.35-276.649c2.447-14.387-3.497-28.918-15.304-37.499-11.812-8.586-27.469-9.733-40.397-2.954l-248.402 130.452-248.399-130.452c-12.931-6.784-28.583-5.627-40.4 2.954-11.813 8.581-17.753 23.107-15.3 37.499l47.25 276.598-200.55 195.851c-10.458 10.208-14.224 25.454-9.7 39.35 4.527 13.894 16.538 24.006 31 26.1l277.5 40.2 124.15 251.65 2.75 4.65c7.088 10.377 18.905 16.75 31.699 16.75z" />
<glyph unicode="&#xe937;" glyph-name="star" data-tags="star, favorite, rate, like, highlight" d="M512.005 896c14.618-0.003 27.986-8.292 34.452-21.4l124.099-251.65 277.55-40.2c14.454-2.099 26.476-12.21 31.002-26.1 4.521-13.895 0.753-29.143-9.702-39.35l-200.648-195.8 47.35-276.649c2.452-14.392-3.492-28.918-15.299-37.499-11.817-8.586-27.469-9.733-40.402-2.954l-248.402 130.452-248.398-130.452c-12.933-6.789-28.582-5.632-40.4 2.954-11.813 8.581-17.753 23.107-15.3 37.499l47.25 276.598-200.55 195.851c-10.458 10.208-14.224 25.454-9.7 39.35 4.526 13.895 16.537 24.006 31 26.1l277.5 40.2 124.15 251.65 2.75 4.65c7.087 10.379 18.904 16.75 31.698 16.75zM413.307 570.8c-5.597-11.345-16.43-19.24-28.95-21.050l-220.45-31.85 159.35-155.552c9.026-8.806 13.167-21.514 11.050-33.946l-37.65-219.853 197.5 103.649 4.3 1.9c10.188 3.845 21.627 3.231 31.401-1.9l197.448-103.649-37.601 219.853c-2.115 12.431 1.976 25.139 11.003 33.946l159.35 155.552-220.452 31.85c-12.513 1.814-23.352 9.71-28.948 21.050l-98.7 200-98.65-200z" />
<glyph unicode="&#xe938;" glyph-name="refresh" data-tags="refresh, update, reload, renew, repeat" d="M484.85 884.75c14.996 14.996 39.305 14.996 54.301 0l153.6-153.6c14.991-14.996 14.996-39.304 0-54.3l-153.6-153.6c-14.996-14.994-39.306-14.994-54.301 0-14.996 14.996-14.995 39.304 0 54.3l88.052 88.050h-60.902c-162.6 0-294.4-131.8-294.4-294.4 0.002-162.601 131.801-294.4 294.4-294.4 162.601 0 294.4 131.799 294.4 294.4 0 21.207 17.193 38.4 38.4 38.4s38.4-17.193 38.4-38.4c0-205.015-166.185-371.2-371.2-371.2s-371.198 166.185-371.2 371.2c0 205.016 166.184 371.2 371.2 371.2h60.902l-88.052 88.050c-14.996 14.996-14.995 39.304 0 54.3z" />
<glyph unicode="&#xe939;" glyph-name="user" data-tags="user, profile, person, account, individual" d="M512 358.4c102.938 0 200.018-8.602 272.302-42.501 36.987-17.347 68.782-41.892 91.1-76.298 22.354-34.483 33.398-76.073 33.398-124.401 0-21.207-17.193-38.4-38.4-38.4s-38.4 17.193-38.4 38.4c0 36.398-8.161 62.797-21.002 82.601-12.882 19.866-32.292 35.932-59.3 48.599-55.716 26.132-137.836 35.2-239.698 35.2-101.863 0-183.982-9.068-239.7-35.2-27.004-12.667-46.417-28.733-59.3-48.599-12.838-19.804-21-46.203-21-82.601 0-21.207-17.192-38.4-38.4-38.4s-38.4 17.193-38.4 38.4c0 48.328 11.042 89.917 33.4 124.401 22.317 34.406 54.112 58.952 91.1 76.298 72.282 33.9 169.364 42.501 272.3 42.501zM512 819.2c106.040 0 192-85.961 192-192s-85.96-192-192-192c-106.039 0-192 85.961-192 192s85.961 192 192 192zM512 742.4c-63.623 0-115.2-51.577-115.2-115.2s51.577-115.2 115.2-115.2c63.621 0 115.2 51.577 115.2 115.2s-51.579 115.2-115.2 115.2z" />
<glyph unicode="&#xe93a;" glyph-name="window-minimize" data-tags="window-minimize, shrink, small-screen, collapse, decrease-size" d="M307.2 332.8c49.485 0 89.6-40.115 89.6-89.6v-153.6c0-49.485-40.115-89.6-89.6-89.6h-153.6c-49.485 0-89.6 40.115-89.6 89.6v153.6c0 49.485 40.115 89.6 89.6 89.6h153.6zM819.2 896c77.527 0 140.8-63.272 140.8-140.8v-614.4c0-77.527-63.273-140.8-140.8-140.8h-307.2c-21.208 0-38.4 17.193-38.4 38.4s17.192 38.4 38.4 38.4h307.2c35.113 0 64 28.887 64 64v614.4c0 35.112-28.887 64-64 64h-614.4c-35.112 0-64-28.888-64-64v-307.2c0-21.207-17.192-38.4-38.4-38.4s-38.4 17.193-38.4 38.4v307.2c0 77.528 63.272 140.8 140.8 140.8h614.4zM153.6 256c-7.069 0-12.8-5.729-12.8-12.8v-153.6c0-7.071 5.731-12.8 12.8-12.8h153.6c7.069 0 12.8 5.729 12.8 12.8v153.6c0 7.071-5.731 12.8-12.8 12.8h-153.6zM689.649 679.95c14.996 14.996 39.306 14.996 54.303 0s14.996-39.304 0-54.3l-164.854-164.85h112.102c21.207 0 38.4-17.193 38.4-38.4s-17.193-38.4-38.4-38.4h-204.8c-2.323 0-4.59 0.256-6.8 0.65-0.284 0.051-0.568 0.092-0.85 0.148-0.686 0.138-1.329 0.425-2 0.599-1.702 0.445-3.41 0.87-5.050 1.551-1.492 0.62-2.86 1.454-4.25 2.253-2.902 1.659-5.722 3.569-8.2 6.047-2.495 2.493-4.435 5.325-6.1 8.253-0.792 1.388-1.634 2.755-2.25 4.25-1.055 2.56-1.822 5.207-2.3 7.9-0.389 2.191-0.6 4.444-0.6 6.748v204.8c0 21.208 17.192 38.4 38.4 38.4s38.4-17.192 38.4-38.4v-112.1l164.849 164.85z" />
<glyph unicode="&#xe93b;" glyph-name="window-maximize" data-tags="window-maximize, enlarge, full-screen, expand, increase" d="M307.2 332.8c49.485 0 89.6-40.115 89.6-89.6v-153.6c0-49.485-40.115-89.6-89.6-89.6h-153.6c-49.485 0-89.6 40.115-89.6 89.6v153.6c0 49.485 40.115 89.6 89.6 89.6h153.6zM819.2 896c77.527 0 140.8-63.272 140.8-140.8v-614.4c0-77.527-63.273-140.8-140.8-140.8h-307.2c-21.208 0-38.4 17.193-38.4 38.4s17.192 38.4 38.4 38.4h307.2c35.113 0 64 28.887 64 64v614.4c0 35.112-28.887 64-64 64h-614.4c-35.112 0-64-28.888-64-64v-307.2c0-21.207-17.192-38.4-38.4-38.4s-38.4 17.193-38.4 38.4v307.2c0 77.528 63.272 140.8 140.8 140.8h614.4zM153.6 256c-7.069 0-12.8-5.729-12.8-12.8v-153.6c0-7.071 5.731-12.8 12.8-12.8h153.6c7.069 0 12.8 5.729 12.8 12.8v153.6c0 7.071-5.731 12.8-12.8 12.8h-153.6zM716.8 691.2c2.304 0 4.557-0.211 6.748-0.6 0.287-0.050 0.568-0.093 0.85-0.15 0.686-0.137 1.331-0.426 2.002-0.6 1.7-0.439 3.41-0.874 5.048-1.55 1.495-0.616 2.862-1.458 4.25-2.25 2.929-1.665 5.76-3.605 8.253-6.1 2.478-2.478 4.388-5.298 6.047-8.2 0.799-1.39 1.633-2.758 2.253-4.25 1.060-2.56 1.818-5.207 2.299-7.9 0.394-2.21 0.65-4.476 0.65-6.8v-204.8c0-21.207-17.193-38.4-38.4-38.4s-38.4 17.193-38.4 38.4v112.1l-164.849-164.851c-14.998-14.996-39.305-14.996-54.301 0s-14.996 39.306 0 54.301l164.852 164.85h-112.102c-21.208 0-38.4 17.192-38.4 38.4s17.192 38.4 38.4 38.4h204.8z" />
<glyph unicode="&#xe93c;" glyph-name="external-link" data-tags="external-link, new-tab, external, link, outside" d="M512 896c21.207 0 38.4-17.192 38.4-38.4s-17.193-38.4-38.4-38.4h-307.2c-35.112 0-64-28.888-64-64v-614.4c0-35.113 28.888-64 64-64h614.4c35.113 0 64 28.887 64 64v307.2c0 21.208 17.193 38.4 38.4 38.4s38.4-17.192 38.4-38.4v-307.2c0-77.527-63.273-140.8-140.8-140.8h-614.4c-77.528 0-140.8 63.273-140.8 140.8v614.4c0 77.528 63.272 140.8 140.8 140.8h307.2zM921.6 896c2.304 0 4.557-0.211 6.748-0.6 0.287-0.050 0.568-0.093 0.85-0.15 0.686-0.137 1.331-0.426 2.002-0.6 1.7-0.439 3.41-0.874 5.048-1.55 1.495-0.616 2.862-1.458 4.25-2.25 2.929-1.665 5.76-3.605 8.253-6.1 2.478-2.478 4.388-5.298 6.047-8.2 0.799-1.39 1.633-2.758 2.253-4.25 1.060-2.56 1.818-5.207 2.299-7.9 0.394-2.21 0.65-4.476 0.65-6.8v-204.8c0-21.208-17.193-38.4-38.4-38.4s-38.4 17.192-38.4 38.4v112.1l-267.249-267.25c-14.996-14.996-39.306-14.996-54.303 0s-14.996 39.304 0 54.3l267.254 267.25h-112.102c-21.207 0-38.4 17.192-38.4 38.4s17.193 38.4 38.4 38.4h204.8z" />
<glyph unicode="&#xe93d;" glyph-name="trash" data-tags="trash, delete, remove, garbage, waste" d="M654.351 896.5c65.055-0.012 129.541-45.692 129.546-115.7v-77.35c0-3.362-0.584-6.592-1.398-9.7h139.1c21.207 0 38.4-17.192 38.4-38.4-0.005-21.202-17.198-38.4-38.4-38.4h-52.7v-501.248c-0.005-69.35-64.317-115.692-129.551-115.702h-455.149c-65.062 0-129.542 45.681-129.55 115.702v501.248h-52.25c-21.203 0-38.393 17.198-38.4 38.4 0 21.208 17.192 38.4 38.4 38.4h139.1c-0.815 3.108-1.347 6.338-1.35 9.7v77.35c0.008 69.356 64.311 115.7 129.55 115.7h284.652zM231.45 115.702c0.009-15.995 17.474-38.902 52.75-38.902h455.149c35.082 0.010 52.741 23.276 52.751 38.902v501.248h-560.65v-501.248zM420.85 500.75c21.203 0 38.393-17.198 38.4-38.4v-231.402c0-21.207-17.192-38.4-38.4-38.4-21.201 0.010-38.4 17.198-38.4 38.4v231.402c0.007 21.197 17.203 38.393 38.4 38.4zM603.151 500.75c21.197-0.007 38.39-17.203 38.4-38.4v-231.402c0-21.202-17.198-38.39-38.4-38.4-21.207 0-38.4 17.193-38.4 38.4v231.402c0.005 21.202 17.193 38.4 38.4 38.4zM369.7 819.7c-35.1 0-52.741-23.271-52.75-38.9v-77.35c-0.003-3.362-0.585-6.592-1.4-9.7h392.899c-0.814 3.108-1.347 6.338-1.352 9.7v77.35c-0.005 15.987-17.49 38.889-52.746 38.9h-284.652z" />
<glyph unicode="&#xe93e;" glyph-name="user-minus" data-tags="user-minus, remove-user, delete-user, user-deletion, eliminate-user" d="M512 332.8c102.938 0 200.018-8.602 272.302-42.501 36.987-17.347 68.782-41.892 91.1-76.298 22.354-34.483 33.398-76.073 33.398-124.401 0-21.207-17.193-38.4-38.4-38.4s-38.4 17.193-38.4 38.4c0 36.398-8.161 62.797-21.002 82.601-12.882 19.866-32.292 35.932-59.3 48.599-55.716 26.132-137.836 35.2-239.698 35.2-101.863 0-183.982-9.068-239.7-35.2-27.004-12.667-46.417-28.733-59.3-48.599-12.838-19.804-21-46.203-21-82.601 0-21.207-17.192-38.4-38.4-38.4s-38.4 17.193-38.4 38.4c0 48.328 11.042 89.917 33.4 124.401 22.317 34.406 54.112 58.952 91.1 76.298 72.282 33.9 169.364 42.501 272.3 42.501zM512 793.6c106.040 0 192-85.961 192-192s-85.96-192-192-192c-106.039 0-192 85.961-192 192s85.961 192 192 192zM960 486.4c21.207 0 38.4-17.192 38.4-38.4s-17.193-38.4-38.4-38.4h-179.2c-21.207 0-38.4 17.193-38.4 38.4s17.193 38.4 38.4 38.4h179.2zM512 716.8c-63.623 0-115.2-51.577-115.2-115.2s51.577-115.2 115.2-115.2c63.621 0 115.2 51.577 115.2 115.2s-51.579 115.2-115.2 115.2z" />
<glyph unicode="&#xe93f;" glyph-name="user-plus" data-tags="user-plus, add-user, new-user, register, signup" d="M512 332.8c102.938 0 200.018-8.602 272.302-42.501 36.987-17.347 68.782-41.892 91.1-76.298 22.354-34.483 33.398-76.073 33.398-124.401 0-21.207-17.193-38.4-38.4-38.4s-38.4 17.193-38.4 38.4c0 36.398-8.161 62.797-21.002 82.601-12.882 19.866-32.292 35.932-59.3 48.599-55.716 26.132-137.836 35.2-239.698 35.2-101.863 0-183.982-9.068-239.7-35.2-27.004-12.667-46.417-28.733-59.3-48.599-12.838-19.804-21-46.203-21-82.601 0-21.207-17.192-38.4-38.4-38.4s-38.4 17.193-38.4 38.4c0 48.328 11.042 89.917 33.4 124.401 22.317 34.406 54.112 58.952 91.1 76.298 72.282 33.9 169.364 42.501 272.3 42.501zM870.4 576c21.207 0 38.4-17.192 38.4-38.4v-51.2h51.2c21.207 0 38.4-17.192 38.4-38.4s-17.193-38.4-38.4-38.4h-51.2v-51.2c0-21.207-17.193-38.4-38.4-38.4s-38.4 17.193-38.4 38.4v51.2h-51.2c-21.207 0-38.4 17.193-38.4 38.4s17.193 38.4 38.4 38.4h51.2v51.2c0 21.208 17.193 38.4 38.4 38.4zM512 793.6c106.040 0 192-85.961 192-192s-85.96-192-192-192c-106.039 0-192 85.961-192 192s85.961 192 192 192zM512 716.8c-63.623 0-115.2-51.577-115.2-115.2s51.577-115.2 115.2-115.2c63.621 0 115.2 51.577 115.2 115.2s-51.579 115.2-115.2 115.2z" />
<glyph unicode="&#xe940;" glyph-name="clock" data-tags="clock, time, hours, minutes, seconds" d="M512 908.8c254.495 0 460.8-206.307 460.8-460.8 0-254.495-206.305-460.8-460.8-460.8-254.493 0-460.8 206.305-460.8 460.8 0 254.493 206.307 460.8 460.8 460.8zM512 832c-212.078 0-384-171.922-384-384 0-212.076 171.922-384 384-384 212.076 0 384 171.924 384 384 0 212.078-171.924 384-384 384zM512 742.4c21.207 0 38.4-17.192 38.4-38.4v-217.6h115.2c21.207 0 38.4-17.192 38.4-38.4s-17.193-38.4-38.4-38.4h-153.6c-21.208 0-38.4 17.193-38.4 38.4v256c0 21.208 17.192 38.4 38.4 38.4z" />
<glyph unicode="&#xe941;" glyph-name="users" data-tags="users, group, team, people, crowd" d="M614.4 358.4c102.938 0 200.018-8.602 272.302-42.501 36.987-17.347 68.782-41.892 91.1-76.298 22.354-34.483 33.398-76.073 33.398-124.401 0-21.207-17.193-38.4-38.4-38.4s-38.4 17.193-38.4 38.4c0 36.398-8.161 62.797-21.002 82.601-12.882 19.866-32.292 35.932-59.3 48.599-55.716 26.132-137.836 35.2-239.698 35.2s-183.982-9.068-239.7-35.2c-27.004-12.667-46.417-28.733-59.3-48.599-12.838-19.804-21-46.203-21-82.601 0-21.207-17.192-38.4-38.4-38.4s-38.4 17.193-38.4 38.4c0 48.328 11.042 89.917 33.4 124.401 22.317 34.406 54.112 58.952 91.1 76.298 72.282 33.9 169.364 42.501 272.3 42.501zM230.4 384c21.208 0 38.4-17.193 38.4-38.4s-17.192-38.4-38.4-38.4c-70.611 0-100.688-15.549-115.85-34.202-16.906-20.797-24.95-56.351-24.95-119.398 0-21.207-17.192-38.4-38.4-38.4s-38.4 17.193-38.4 38.4c0 63.928 6.832 124.396 42.15 167.849 37.065 45.594 96.578 62.551 175.45 62.551zM170.1 561.45c7.524 84.814 82.782 146.976 167.4 138.8 21.109-2.043 36.593-20.841 34.55-41.95-2.052-21.1-20.847-36.542-41.95-34.5-42.332 4.083-79.751-26.964-83.5-69.1-3.557-40.181 23.51-75.448 61.4-82.75l8.050-1.1c17.059-1.672 33.643 2.578 48.55 11.3 18.301 10.704 41.789 4.549 52.5-13.75 10.712-18.301 4.599-41.838-13.7-52.549-27.067-15.841-59.702-24.899-94.85-21.453v0.051c-84.902 7.741-145.885 83.023-138.45 167zM614.4 819.2c106.040 0 192-85.961 192-192s-85.96-192-192-192c-106.039 0-192 85.961-192 192s85.961 192 192 192zM614.4 742.4c-63.621 0-115.2-51.577-115.2-115.2s51.579-115.2 115.2-115.2c63.621 0 115.2 51.577 115.2 115.2s-51.579 115.2-115.2 115.2z" />
<glyph unicode="&#xe942;" glyph-name="pencil" data-tags="pencil, edit, write, draw, update" d="M774.502 895.949c41.236-0.925 84.352-16.008 115.297-46.95 30.484-30.484 46.408-72.584 48.051-113.5 1.536-38.407-9.416-79.267-37.048-110.5l-5.755-6.1-566.398-566.398c-6.348-6.339-14.715-10.24-23.65-11.054l-199.15-18.099c-11.268-1.014-22.406 2.995-30.45 10.952-8.050 7.967-12.211 19.108-11.3 30.397l15.9 196.854c0.733 9.078 4.663 17.603 11.1 24.049l566.4 566.4c31.718 31.713 75.761 44.871 117.002 43.95zM772.803 819.149c-24.95 0.56-47.109-7.562-61.005-21.45l-556.398-556.352-11.050-137.349 139.8 12.652 556.549 556.55c13.763 13.779 21.417 35.126 20.449 59.25-0.973 24.166-10.516 47.118-25.646 62.25-14.679 14.673-37.745 23.889-62.7 24.45z" />
<glyph unicode="&#xe943;" glyph-name="cloud-download" data-tags="cloud-download, download, data, fetch, retrieval" d="M512 482.8c21.207 0 38.4-17.192 38.4-38.399v-232.95l79.35 79.35c14.996 14.991 39.306 14.996 54.298 0 14.981-14.996 14.991-39.311 0-54.303l-144.896-144.896c-1.695-1.695-3.548-3.144-5.453-4.454-0.138-0.092-0.261-0.205-0.399-0.297-0.809-0.543-1.705-0.927-2.55-1.403-1.336-0.753-2.668-1.505-4.101-2.099-0.927-0.379-1.9-0.594-2.847-0.896-3.738-1.219-7.66-2.104-11.802-2.104-4.159 0-8.099 0.876-11.85 2.104-0.947 0.307-1.925 0.512-2.85 0.896-2.611 1.085-5.068 2.442-7.35 4.050-1.775 1.254-3.511 2.616-5.1 4.204l-144.9 144.896c-14.991 14.991-14.982 39.306 0 54.303 14.996 14.996 39.304 14.996 54.3 0l79.35-79.35v232.95c0 21.207 17.192 38.399 38.4 38.399zM384 815.6c142.085 0 264.166-85.749 317.251-208.7 13.041 2.434 26.757 3.9 41.149 3.9 63.688 0 124.16-31.461 167.951-75.25 43.786-43.789 75.249-104.262 75.249-167.949 0-57.661-6.139-117.381-34.55-163.251-30.915-49.894-83.308-76.349-157.45-76.349-21.202 0-38.395 17.198-38.4 38.4 0.010 21.202 17.198 38.4 38.4 38.4 53.847 0 78.259 17.587 92.15 39.997 16.374 26.445 23.050 67.333 23.050 122.803 0 38.707-19.743 80.639-52.751 113.649-33.009 33.011-74.936 52.75-113.649 52.75-17.848 0-35.215-3.571-53.151-9.4-9.769-3.173-20.429-2.272-29.548 2.45-9.108 4.723-15.959 12.902-19 22.7-34.063 109.804-136.248 189.050-256.701 189.050-148.264-0.001-268.8-120.536-268.8-268.8 0-73.681 0.409-142.638 17.25-193.5 8.096-24.443 19.089-41.646 33.1-52.849 13.575-10.849 33.469-18.852 64.85-18.852 21.202 0 38.391-17.198 38.4-38.4-0.007-21.202-17.197-38.4-38.4-38.4-45.399 0-83.13 11.986-112.75 35.651-29.175 23.316-46.998 55.178-58.1 88.699-21.557 65.101-21.15 147.978-21.15 217.651 0 190.68 154.921 345.599 345.6 345.6z" />
<glyph unicode="&#xe944;" glyph-name="cloud-upload" data-tags="cloud-upload, backup, save, upload" d="M513.3 482.75c0.333-0.011 0.666-0.030 0.998-0.050 2.084-0.123 4.122-0.407 6.103-0.85 1.295-0.29 2.529-0.774 3.799-1.2 0.963-0.325 1.971-0.503 2.898-0.9 4.383-1.872 8.479-4.625 12.052-8.2l144.901-144.899c14.981-14.996 14.986-39.306 0-54.303-14.996-14.981-39.306-14.981-54.303 0l-79.35 79.35v-232.95c-0.015-21.192-17.203-38.4-38.4-38.4s-38.383 17.208-38.4 38.4v232.95l-79.35-79.35c-14.995-14.981-39.307-14.986-54.3 0-14.992 14.996-14.985 39.306 0 54.303l144.9 144.899 2.9 2.65c0.519 0.423 1.114 0.758 1.65 1.15 0.796 0.582 1.61 1.129 2.45 1.65 1.224 0.758 2.466 1.442 3.75 2.050 0.964 0.457 1.944 0.872 2.95 1.25 1.218 0.455 2.45 0.823 3.7 1.15 1.299 0.341 2.601 0.695 3.95 0.9 0.417 0.063 0.831 0.151 1.25 0.2 1.492 0.176 3.011 0.25 4.55 0.25 0.435 0 0.87-0.036 1.3-0.050zM384 815.6c142.085 0 264.166-85.749 317.251-208.7 13.041 2.434 26.757 3.9 41.149 3.9 63.688 0 124.16-31.461 167.951-75.25 43.786-43.789 75.249-104.262 75.249-167.949 0-57.661-6.139-117.381-34.55-163.251-30.915-49.894-83.308-76.349-157.45-76.349-21.202 0-38.395 17.198-38.4 38.4 0.010 21.202 17.198 38.4 38.4 38.4 53.847 0 78.259 17.587 92.15 39.997 16.374 26.445 23.050 67.333 23.050 122.803 0 38.707-19.743 80.639-52.751 113.649-33.009 33.011-74.936 52.75-113.649 52.75-17.848 0-35.215-3.571-53.151-9.4-9.769-3.173-20.429-2.272-29.548 2.45-9.108 4.723-15.959 12.902-19 22.7-34.063 109.804-136.248 189.050-256.701 189.050-148.264 0-268.8-120.536-268.8-268.8 0.001-70.563 6.45-140.625 26.2-191.749 9.736-25.196 21.863-43.453 35.8-55.25 13.234-11.197 29.979-18.202 53.2-18.202 21.202 0 38.392-17.198 38.4-38.4-0.007-21.202-17.197-38.4-38.4-38.4-40.77 0-75.236 13.030-102.8 36.352-26.849 22.717-45.141 53.484-57.8 86.246-25.047 64.84-31.399 146.611-31.4 219.402 0 190.68 154.92 345.6 345.6 345.6z" />
<glyph unicode="&#xe945;" glyph-name="cloud" data-tags="cloud, internet, storage, weather, data" d="M38.4 448c0 190.68 154.92 345.6 345.6 345.6 142.085 0 264.166-85.749 317.251-208.7 13.041 2.434 26.757 3.9 41.149 3.9 63.688 0 124.16-31.461 167.951-75.25 43.786-43.789 75.249-104.262 75.249-167.95 0-134.359-108.841-243.2-243.2-243.2h-358.4c-190.68 0-345.6 154.921-345.6 345.6zM115.2 448c0-148.265 120.536-268.8 268.8-268.8h358.4c91.945 0 166.4 74.455 166.4 166.4 0 38.712-19.738 80.64-52.751 113.65-33.009 33.011-74.936 52.75-113.649 52.75-17.848 0-35.215-3.571-53.151-9.4-9.769-3.175-20.429-2.275-29.548 2.45-9.114 4.725-15.959 12.897-19 22.7-34.063 109.803-136.248 189.050-256.701 189.050-148.264 0-268.8-120.536-268.8-268.8z" />
<glyph unicode="&#xe946;" glyph-name="align-right" data-tags="align-right, text-alignment, right-aligned, end-alignment, text-flush-right" d="M918.001 179.2c21.207 0 38.4-17.193 38.4-38.4s-17.193-38.4-38.4-38.4h-512.001c-21.201 0.010-38.4 17.198-38.4 38.4s17.199 38.39 38.4 38.4h512.001zM921.6 384c21.207 0 38.4-17.193 38.4-38.4s-17.193-38.4-38.4-38.4h-819.2c-21.208 0-38.4 17.193-38.4 38.4s17.192 38.4 38.4 38.4h819.2zM918.001 588.8c21.207 0 38.4-17.192 38.4-38.4s-17.193-38.4-38.4-38.4h-512.001c-21.201 0.008-38.4 17.198-38.4 38.4s17.199 38.392 38.4 38.4h512.001zM921.6 793.6c21.207 0 38.4-17.192 38.4-38.4s-17.193-38.4-38.4-38.4h-819.2c-21.208 0-38.4 17.192-38.4 38.4s17.192 38.4 38.4 38.4h819.2z" />
<glyph unicode="&#xe947;" glyph-name="align-left" data-tags="align-left, text-alignment, left-aligned, start-alignment, text-flush-left" d="M610.801 167.951c21.202 0 38.395-17.198 38.4-38.4 0-21.207-17.193-38.4-38.4-38.4h-512.001c-21.201 0.005-38.4 17.198-38.4 38.4 0.007 21.197 17.204 38.39 38.4 38.4h512.001zM925.199 372.751c21.197-0.010 38.395-17.203 38.4-38.4 0-21.202-17.198-38.395-38.4-38.4h-819.199c-21.208 0-38.4 17.193-38.4 38.4 0.007 21.202 17.197 38.4 38.4 38.4h819.199zM610.801 577.55c21.202 0 38.395-17.198 38.4-38.4 0-21.208-17.193-38.4-38.4-38.4h-512.001c-21.201 0.009-38.4 17.198-38.4 38.4 0.007 21.197 17.204 38.392 38.4 38.4h512.001zM925.199 782.35c21.197-0.008 38.395-17.203 38.4-38.4 0-21.202-17.198-38.391-38.4-38.4h-819.199c-21.208 0-38.4 17.192-38.4 38.4 0.007 21.202 17.197 38.4 38.4 38.4h819.199z" />
<glyph unicode="&#xe948;" glyph-name="align-center" data-tags="align-center, text-alignment, center-text, middle-alignment, centered-layout" d="M768 179.2c21.207 0 38.4-17.193 38.4-38.4s-17.193-38.4-38.4-38.4h-512c-21.208 0-38.4 17.193-38.4 38.4s17.192 38.4 38.4 38.4h512zM921.6 384c21.207 0 38.4-17.193 38.4-38.4s-17.193-38.4-38.4-38.4h-819.2c-21.208 0-38.4 17.193-38.4 38.4s17.192 38.4 38.4 38.4h819.2zM768 588.8c21.207 0 38.4-17.192 38.4-38.4s-17.193-38.4-38.4-38.4h-512c-21.208 0-38.4 17.192-38.4 38.4s17.192 38.4 38.4 38.4h512zM921.6 793.6c21.207 0 38.4-17.192 38.4-38.4s-17.193-38.4-38.4-38.4h-819.2c-21.208 0-38.4 17.192-38.4 38.4s17.192 38.4 38.4 38.4h819.2z" />
<glyph unicode="&#xe949;" glyph-name="align-justify" data-tags="align-justify, text-alignment, justify-text, uniform-spacing, balanced-layout" d="M921.6 179.2c21.207 0 38.4-17.193 38.4-38.4s-17.193-38.4-38.4-38.4h-819.2c-21.208 0-38.4 17.193-38.4 38.4s17.192 38.4 38.4 38.4h819.2zM921.6 384c21.207 0 38.4-17.193 38.4-38.4s-17.193-38.4-38.4-38.4h-819.2c-21.208 0-38.4 17.193-38.4 38.4s17.192 38.4 38.4 38.4h819.2zM921.6 588.8c21.207 0 38.4-17.192 38.4-38.4s-17.193-38.4-38.4-38.4h-819.2c-21.208 0-38.4 17.192-38.4 38.4s17.192 38.4 38.4 38.4h819.2zM921.6 793.6c21.207 0 38.4-17.192 38.4-38.4s-17.193-38.4-38.4-38.4h-819.2c-21.208 0-38.4 17.192-38.4 38.4s17.192 38.4 38.4 38.4h819.2z" />
<glyph unicode="&#xe94a;" glyph-name="cog" data-tags="cog, settings, gears, options, configuration" d="M511.5 896c63.338-0.007 112.649-53.22 112.649-114.7 0.005-8.703 4.879-16.877 11.351-21.050l2.852-1.55 0.348-0.15c7.286-3.232 18.652-1.873 27.151 6.15l0.051-0.050c43.576 42.749 115.415 44.886 160 0.3 44.749-44.764 42.358-116.368-0.2-159.85l0.046-0.050c-6.62-6.82-8.945-17.767-7.25-25.3l1.004-3 0.148-0.35v-0.050c3.384-7.797 14.387-15.48 24.95-15.7h-0.051c59.51-0.414 115.451-48.464 115.451-112.65 0-63.34-53.222-112.645-114.698-112.65-9.938-0.010-19.22-6.374-22.6-14.198l-0.154-0.353c-3.236-7.281-1.869-18.647 6.149-27.146h-0.046c42.772-43.576 44.887-115.456 0.297-160.051-44.764-44.754-116.419-42.419-159.898 0.148-8.079 7.839-19.768 9.349-26.752 6.252l-0.399-0.154c-6.917-3-14.198-13.158-14.198-24.146-0.010-59.781-48.154-116.183-112.604-116.204-63.094 0-112.261 52.777-112.648 113.951v-0.051c-0.216 10.44-7.126 19.599-15.1 22.502-0.853 0.307-1.721 0.681-2.55 1.050-7.284 3.236-18.652 1.869-27.15-6.149l-0.050 0.051c-43.574-42.752-115.361-44.877-159.95-0.302-44.816 44.815-42.458 116.577 0.25 160.051 7.705 8.069 9.224 19.656 6.15 26.598l-0.2 0.399c-3.003 6.917-13.17 14.198-24.15 14.203-59.781 0.010-116.191 48.148-116.2 112.599 0 63.073 52.751 112.23 113.9 112.649 10.443 0.219 19.658 7.119 22.55 15.1l1 2.55c3.235 7.284 1.873 18.651-6.15 27.15v0.050c-42.72 43.577-44.812 115.372-0.25 159.95 44.765 44.758 116.417 42.461 159.9-0.1l3.15-2.6c7.84-5.39 18.746-6.539 25.15-3.7l0.35 0.2c7.803 3.376 15.53 14.38 15.75 24.95 0.44 59.49 48.482 115.4 112.65 115.4zM511.5 819.2c-17.449 0-35.837-17.287-35.85-39.4 0-0.259 0.005-0.541 0-0.8-0.801-38.45-24.71-77.467-61.75-93.65l0.050-0.050c-38.748-17.222-84.954-5.878-113 21.35l-0.15 0.15c-14.896 14.634-38.397 14.295-51.95 0.75-12.655-12.671-13.759-34.388-1.6-49.3l2.65-2.85 0.75-0.8c26.781-28.362 37.737-72.31 20.5-111.1l-0.050 0.050c-15.212-38.645-53.273-62.501-92.15-63.3-0.246-0.005-0.504 0-0.75 0-21.46 0-37.9-17.274-37.9-35.849 0.011-17.444 17.293-35.789 39.4-35.799 38.017-0.005 77.88-22.318 94.45-60.201h0.050c17.37-39.091 5.61-83.743-21.35-111.498l-0.15-0.154c-14.635-14.894-14.301-38.349-0.75-51.896 13.509-13.496 37.282-13.844 52.15 0.998l0.8 0.799c27.741 26.194 70.352 37.156 108.5 21.499h0.050c40.133-14.52 64.989-53.478 65.8-93.199 0.005-0.251 0-0.502 0-0.748 0-21.463 17.276-37.903 35.848-37.903 17.444 0.020 35.794 17.295 35.804 39.404 0 38.026 22.292 77.932 60.196 94.5 36.654 16.282 78.188 6.953 106.102-16.502l5.402-4.9 0.148-0.148c14.894-14.607 38.354-14.285 51.901-0.753 13.501 13.512 13.844 37.33-0.998 52.204-0.261 0.256-0.553 0.532-0.804 0.799-26.691 28.268-37.647 72.003-20.649 110.7l3.302 6.799c17.536 33.229 53.048 53.74 89.8 53.75 21.453 0.005 37.898 17.28 37.898 35.85 0 17.449-17.29 35.836-39.398 35.85-0.261 0-0.543-0.005-0.804 0-38.456 0.801-77.522 24.692-93.696 61.75-17.203 38.75-5.837 84.916 21.396 112.95l0.154 0.15c14.623 14.894 14.285 38.399 0.748 51.95-13.512 13.513-37.33 13.814-52.198-1.050-0.256-0.256-0.538-0.502-0.799-0.75-28.36-26.783-72.31-37.735-111.104-20.5v0.050c-36.982 16.169-60.145 53.84-60.15 92.9 0 21.455-17.28 37.893-35.849 37.9zM512 598c82.836-0.009 150.042-67.161 150.052-150-0.010-82.842-67.21-150.042-150.052-150.052-82.84 0.010-149.993 67.21-150 150.052 0.009 82.839 67.161 149.991 150 150zM512 521.2c-40.424-0.009-73.191-32.777-73.2-73.2 0.007-40.422 32.775-73.242 73.2-73.252 40.422 0.010 73.242 32.824 73.252 73.252-0.010 40.423-32.829 73.191-73.252 73.2z" />
<glyph unicode="&#xe94b;" glyph-name="print" data-tags="print, printout, hard-copy, document, printer" d="M691.2 896c35.031 0 64-28.968 64-64v-140.8h64c77.527 0 140.8-63.272 140.8-140.8v-204.8c0-77.527-63.273-140.8-140.8-140.8h-64v-140.8c0-35.348-28.652-64-64-64h-358.4c-35.346 0-64 28.652-64 64v140.8h-64c-77.528 0-140.8 63.273-140.8 140.8v204.8c0 77.528 63.272 140.8 140.8 140.8h64v140.8c0 35.032 28.968 64 64 64h358.4zM345.6 76.8h332.8v332.8h-332.8v-332.8zM204.8 614.4c-35.112 0-64-28.888-64-64v-204.8c0-35.113 28.888-64 64-64h64v140.8c0 35.346 28.654 64 64 64h358.4c35.348 0 64-28.654 64-64v-140.8h64c35.113 0 64 28.887 64 64v204.8c0 35.112-28.887 64-64 64h-614.4zM345.6 691.2h332.8v128h-332.8v-128z" />
<glyph unicode="&#xe94c;" glyph-name="filter" data-tags="filter, refine, criteria, sort, selection" d="M896 870.4c14.469 0 27.709-8.142 34.248-21.050s5.258-28.382-3.297-40.050l-274.15-373.798v-397.102c0-21.207-17.193-38.4-38.4-38.4h-204.8c-21.208 0-38.4 17.193-38.4 38.4v397.102l-274.15 373.798c-8.557 11.668-9.839 27.143-3.3 40.050 6.541 12.908 19.78 21.050 34.25 21.050h768zM440.55 470.7c4.83-6.586 7.45-14.533 7.45-22.7v-371.2h128v371.2c0 8.167 2.621 16.114 7.45 22.7l236.8 322.9h-616.5l236.8-322.9z" />
<glyph unicode="&#xe94d;" glyph-name="replay" data-tags="replay, repeat, redo, play-again, loop" d="M484.85 884.75c14.996 14.996 39.305 14.996 54.301 0 14.991-14.996 14.996-39.304 0-54.3l-88.051-88.050h60.9c205.015 0 371.2-166.184 371.2-371.2s-166.185-371.2-371.2-371.2c-205.015 0-371.198 166.185-371.2 371.2 0 21.207 17.192 38.4 38.4 38.4s38.4-17.193 38.4-38.4c0.002-162.601 131.801-294.4 294.4-294.4 162.601 0 294.4 131.799 294.4 294.4s-131.799 294.4-294.4 294.4h-60.9l88.051-88.050c14.991-14.996 14.996-39.304 0-54.3-14.996-14.994-39.306-14.994-54.301 0l-153.6 153.6c-14.996 14.996-14.995 39.304 0 54.3l153.6 153.6z" />
<glyph unicode="&#xe94e;" glyph-name="bookmark" data-tags="bookmark, favorite, mark, save, tag" d="M768 755.2c0 35.112-28.887 64-64 64h-384c-35.112 0-64-28.888-64-64v-643.302l234.050 162.801 5.15 3.052c12.358 6.016 27.219 4.972 38.749-3.052l234.051-162.801v643.302zM844.8 38.4c0-14.295-7.931-27.428-20.598-34.048-12.677-6.625-28.017-5.617-39.752 2.55l-272.451 189.548-272.45-189.548c-11.738-8.166-27.078-9.175-39.75-2.55-12.668 6.62-20.6 19.753-20.6 34.048v716.8c0 77.528 63.272 140.8 140.8 140.8h384c77.527 0 140.8-63.272 140.8-140.8v-716.8z" />
<glyph unicode="&#xe94f;" glyph-name="globe" data-tags="globe, world, internet, global, earth" d="M512 908.8c254.495 0 460.8-206.307 460.8-460.8 0-254.495-206.305-460.8-460.8-460.8-254.493 0-460.8 206.305-460.8 460.8 0 254.493 206.307 460.8 460.8 460.8zM129.95 409.6c16.254-163.686 135.278-297.001 291.65-334.751-73.704 96.522-139.085 213.274-150.85 334.751h-140.8zM753.249 409.6c-11.766-121.487-77.189-238.223-150.902-334.751 156.396 37.734 275.446 171.044 291.702 334.751h-140.8zM347.95 409.6c13.437-113.075 83.443-227.779 164.050-324.951 80.604 97.172 150.61 211.876 164.050 324.951h-328.1zM602.348 821.2c73.723-96.531 139.136-213.299 150.902-334.8h140.8c-16.256 163.708-135.301 297.071-291.702 334.8zM512 811.4c-80.617-97.179-150.615-211.91-164.050-325h328.1c-13.435 113.091-83.43 227.822-164.050 325zM421.6 821.2c-156.378-37.744-275.396-171.108-291.65-334.8h140.8c11.766 121.491 77.136 238.274 150.85 334.8z" />
<glyph unicode="&#xe950;" glyph-name="ellipsis-v" data-tags="ellipsis-v, more, options, menu, vertical, dots" d="M512 179.2c49.367 0 89.6-40.233 89.6-89.6s-40.233-89.6-89.6-89.6c-49.368 0-89.6 40.233-89.6 89.6s40.232 89.6 89.6 89.6zM512 537.6c49.367 0 89.6-40.232 89.6-89.6s-40.233-89.6-89.6-89.6c-49.368 0-89.6 40.233-89.6 89.6s40.232 89.6 89.6 89.6zM512 896c49.367 0 89.6-40.232 89.6-89.6s-40.233-89.6-89.6-89.6c-49.368 0-89.6 40.232-89.6 89.6s40.232 89.6 89.6 89.6z" />
<glyph unicode="&#xe951;" glyph-name="ellipsis-h" data-tags="ellipsis-h, more, options, menu, horizontal, dots" d="M153.6 537.6c49.368 0 89.6-40.232 89.6-89.6s-40.232-89.6-89.6-89.6c-49.368 0-89.6 40.233-89.6 89.6s40.232 89.6 89.6 89.6zM512 537.6c49.367 0 89.6-40.232 89.6-89.6s-40.233-89.6-89.6-89.6c-49.368 0-89.6 40.233-89.6 89.6s40.232 89.6 89.6 89.6zM870.4 537.6c49.367 0 89.6-40.232 89.6-89.6s-40.233-89.6-89.6-89.6c-49.367 0-89.6 40.233-89.6 89.6s40.233 89.6 89.6 89.6z" />
<glyph unicode="&#xe952;" glyph-name="calendar-times" data-tags="calendar-times, delete-event, clear-calendar" d="M665.6 921.6c21.207 0 38.4-17.192 38.4-38.4v-64h64c77.763 0 140.8-63.038 140.8-140.8v-563.2c0-77.763-63.037-140.8-140.8-140.8h-512c-77.762 0-140.8 63.037-140.8 140.8v563.2c0 77.762 63.038 140.8 140.8 140.8h64v64c0 21.208 17.192 38.4 38.4 38.4s38.4-17.192 38.4-38.4v-64h230.4v64c0 21.208 17.193 38.4 38.4 38.4zM192 115.2c0-35.348 28.654-64 64-64h512c35.348 0 64 28.652 64 64v345.6h-640v-345.6zM557.051 342.548c14.991 14.981 39.306 14.986 54.298 0 14.986-14.991 14.986-39.306 0-54.298l-45.051-45.051 45.051-45.051c14.981-14.996 14.991-39.306 0-54.298s-39.301-14.981-54.298 0l-45.051 45.051-45.050-45.051c-14.994-14.986-39.306-14.986-54.3 0-14.984 14.991-14.985 39.306 0 54.298l45.050 45.051-45.050 45.051c-14.987 14.996-14.993 39.306 0 54.298s39.304 14.986 54.3 0l45.050-45.051 45.051 45.051zM256 742.4c-35.346 0-64-28.654-64-64v-140.8h640v140.8c0 35.346-28.652 64-64 64h-64v-64c0-21.208-17.193-38.4-38.4-38.4s-38.4 17.192-38.4 38.4v64h-230.4v-64c0-21.208-17.192-38.4-38.4-38.4s-38.4 17.192-38.4 38.4v64h-64z" />
<glyph unicode="&#xe953;" glyph-name="calendar-minus" data-tags="calendar-minus, remove-event, delete-date, cancel-event" d="M665.6 921.6c21.207 0 38.4-17.192 38.4-38.4v-64h64c77.763 0 140.8-63.038 140.8-140.8v-563.2c0-77.763-63.037-140.8-140.8-140.8h-512c-77.762 0-140.8 63.037-140.8 140.8v563.2c0 77.762 63.038 140.8 140.8 140.8h64v64c0 21.208 17.192 38.4 38.4 38.4s38.4-17.192 38.4-38.4v-64h230.4v64c0 21.208 17.193 38.4 38.4 38.4zM192 115.2c0-35.348 28.654-64 64-64h512c35.348 0 64 28.652 64 64v345.6h-640v-345.6zM614.4 279.050c21.202 0 38.395-17.198 38.4-38.4 0-21.207-17.193-38.4-38.4-38.4h-204.8c-21.208 0-38.4 17.193-38.4 38.4 0.007 21.202 17.197 38.4 38.4 38.4h204.8zM256 742.4c-35.346 0-64-28.654-64-64v-140.8h640v140.8c0 35.346-28.652 64-64 64h-64v-64c0-21.208-17.193-38.4-38.4-38.4s-38.4 17.192-38.4 38.4v64h-230.4v-64c0-21.208-17.192-38.4-38.4-38.4s-38.4 17.192-38.4 38.4v64h-64z" />
<glyph unicode="&#xe954;" glyph-name="calendar-plus" data-tags="calendar-plus, add-event, new-date, schedule" d="M665.6 921.6c21.207 0 38.4-17.192 38.4-38.4v-64h64c77.763 0 140.8-63.038 140.8-140.8v-563.2c0-77.763-63.037-140.8-140.8-140.8h-512c-77.762 0-140.8 63.037-140.8 140.8v563.2c0 77.762 63.038 140.8 140.8 140.8h64v64c0 21.208 17.192 38.4 38.4 38.4s38.4-17.192 38.4-38.4v-64h230.4v64c0 21.208 17.193 38.4 38.4 38.4zM192 115.2c0-35.348 28.654-64 64-64h512c35.348 0 64 28.652 64 64v345.6h-640v-345.6zM512 384c21.207 0 38.4-17.193 38.4-38.4v-64h64c21.207 0 38.4-17.193 38.4-38.4s-17.193-38.4-38.4-38.4h-64v-64c0-21.207-17.193-38.4-38.4-38.4s-38.4 17.193-38.4 38.4v64h-64c-21.208 0-38.4 17.193-38.4 38.4s17.192 38.4 38.4 38.4h64v64c0 21.207 17.192 38.4 38.4 38.4zM256 742.4c-35.346 0-64-28.654-64-64v-140.8h640v140.8c0 35.346-28.652 64-64 64h-64v-64c0-21.208-17.193-38.4-38.4-38.4s-38.4 17.192-38.4 38.4v64h-230.4v-64c0-21.208-17.192-38.4-38.4-38.4s-38.4 17.192-38.4 38.4v64h-64z" />
<glyph unicode="&#xe955;" glyph-name="clone" data-tags="clone, duplicate, copy, replicate" d="M614.4 896c77.763 0 140.8-63.038 140.8-140.8v-64h64c77.527 0 140.8-63.272 140.8-140.8v-409.6c0-77.527-63.273-140.8-140.8-140.8h-409.6c-77.528 0-140.8 63.273-140.8 140.8v64h-64c-77.762 0-140.8 63.037-140.8 140.8v409.6c0 77.762 63.038 140.8 140.8 140.8h409.6zM755.2 345.6c0-77.763-63.037-140.8-140.8-140.8h-268.8v-64c0-35.113 28.888-64 64-64h409.6c35.113 0 64 28.887 64 64v409.6c0 35.112-28.887 64-64 64h-64v-268.8zM204.8 819.2c-35.346 0-64-28.654-64-64v-409.6c0-35.348 28.654-64 64-64h409.6c35.348 0 64 28.652 64 64v409.6c0 35.346-28.652 64-64 64h-409.6z" />
<glyph unicode="&#xe956;" glyph-name="download" data-tags="download, save, transfer, get, receive" d="M921.6 332.8c21.207 0 38.4-17.193 38.4-38.4v-153.6c0-73.185-54.067-140.8-129.551-140.8h-636.899c-75.482 0-129.55 67.615-129.55 140.8v153.6c0 21.207 17.192 38.4 38.4 38.4s38.4-17.193 38.4-38.4v-153.6c0-39.455 27.879-64 52.75-64h636.899c24.873 0 52.751 24.545 52.751 64v153.6c0 21.207 17.193 38.4 38.4 38.4zM512 896c21.207 0 38.4-17.192 38.4-38.4v-470.502l139.249 139.252c14.996 14.996 39.306 14.996 54.303 0s14.996-39.304 0-54.3l-204.8-204.802c-2.488-2.488-5.335-4.388-8.253-6.047-1.388-0.794-2.755-1.633-4.25-2.253-1.638-0.676-3.343-1.111-5.048-1.551-0.671-0.174-1.316-0.461-2.002-0.599-0.282-0.056-0.563-0.097-0.85-0.148-2.191-0.389-4.444-0.65-6.748-0.65-2.323 0-4.59 0.256-6.8 0.65-0.284 0.051-0.568 0.092-0.85 0.148-0.686 0.138-1.329 0.425-2 0.599-1.702 0.445-3.41 0.87-5.050 1.551-1.492 0.62-2.86 1.454-4.25 2.253-2.902 1.659-5.722 3.569-8.2 6.047l-204.8 204.802c-14.996 14.996-14.996 39.304 0 54.3s39.304 14.996 54.3 0l139.25-139.252v470.502c0 21.208 17.192 38.4 38.4 38.4z" />
<glyph unicode="&#xe957;" glyph-name="copy" data-tags="copy, duplicate, replicate, clone, reproduce" d="M588.8 947.2c10.184 0 19.948-4.049 27.151-11.25l281.6-281.6c7.199-7.201 11.249-16.966 11.249-27.15v-332.8c0-77.527-63.273-140.8-140.8-140.8h-12.8v-64c0-77.527-63.273-140.8-140.8-140.8h-358.4c-77.528 0-140.8 63.273-140.8 140.8v512c0 77.528 63.272 140.8 140.8 140.8h64v64c0 77.528 63.272 140.8 140.8 140.8h128zM256 665.6c-35.112 0-64-28.888-64-64v-512c0-35.113 28.888-64 64-64h358.4c35.113 0 64 28.887 64 64v64h-217.6c-77.528 0-140.8 63.273-140.8 140.8v371.2h-64zM460.8 870.4c-35.112 0-64-28.888-64-64v-512c0-35.113 28.888-64 64-64h307.2c35.113 0 64 28.887 64 64v294.4h-243.2c-21.207 0-38.4 17.192-38.4 38.4v243.2h-89.6zM627.2 665.6h150.502l-150.502 150.5v-150.5z" />
<glyph unicode="&#xe958;" glyph-name="file" data-tags="file, document, record, data, paper" d="M537.6 896c10.184 0 19.948-4.048 27.151-11.25l281.6-281.6c7.199-7.201 11.249-16.966 11.249-27.15v-435.2c0-77.527-63.273-140.8-140.8-140.8h-409.6c-77.528 0-140.8 63.273-140.8 140.8v614.4c0 77.528 63.272 140.8 140.8 140.8h230.4zM307.2 819.2c-35.112 0-64-28.888-64-64v-614.4c0-35.113 28.888-64 64-64h409.6c35.113 0 64 28.887 64 64v396.8h-243.2c-21.207 0-38.4 17.192-38.4 38.4v243.2h-192zM576 614.4h150.502l-150.502 150.5v-150.5z" />
<glyph unicode="&#xe959;" glyph-name="question-circle" data-tags="question-circle, help, info, query, uncertainty" d="M512 908.8c254.495 0 460.8-206.307 460.8-460.8 0-254.495-206.305-460.8-460.8-460.8-254.493 0-460.8 206.305-460.8 460.8 0 254.493 206.307 460.8 460.8 460.8zM512 832c-212.078 0-384-171.922-384-384 0-212.076 171.922-384 384-384 212.076 0 384 171.924 384 384 0 212.078-171.924 384-384 384zM512 281.6c28.16 0 51.2-23.040 51.2-51.2s-23.040-51.2-51.2-51.2c-28.16 0-51.2 23.040-51.2 51.2s23.040 51.2 51.2 51.2zM512 716.8c45.824 0 87.782-18.582 117.801-48.6s48.599-71.977 48.599-117.8c0-45.823-18.58-87.781-48.599-117.801-21.376-21.376-48.84-36.844-79.401-44.047v-17.352c0-21.207-17.193-38.4-38.4-38.4s-38.4 17.193-38.4 38.4v51.2c0 21.207 17.192 38.4 38.4 38.4 24.832 0 47.391 10.089 63.452 26.15s26.148 38.617 26.148 63.45c0 24.833-10.086 47.389-26.148 63.45s-38.62 26.15-63.452 26.15c-24.833 0-47.389-10.089-63.45-26.15s-26.15-38.617-26.15-63.45c0-21.208-17.192-38.4-38.4-38.4s-38.4 17.192-38.4 38.4c0 45.823 18.581 87.781 48.6 117.8s71.977 48.6 117.8 48.6z" />
<glyph unicode="&#xe95a;" glyph-name="question" data-tags="question, help, query, doubt, uncertainty" d="M512 128c35.348 0 64-28.652 64-64s-28.652-64-64-64c-35.346 0-64 28.652-64 64s28.654 64 64 64zM512 896c81.526 0 155.331-32.337 208.548-86.15 52.803-53.387 85.852-126.43 85.852-208.25 0-81.528-32.338-155.331-86.149-208.548-44.861-44.37-103.946-74.65-169.851-83.251v-66.601c0-21.207-17.193-38.4-38.4-38.4s-38.4 17.193-38.4 38.4v102.4c0 21.207 17.192 38.4 38.4 38.4 60.042 0 114.483 24.32 154.25 63.652 39.373 38.937 63.35 93.14 63.35 153.948 0 60.516-24.289 114.453-63.652 154.25-38.938 39.371-93.138 63.35-153.948 63.35-60.516 0-114.453-24.29-154.25-63.65-39.371-38.939-63.35-93.143-63.35-153.95 0-21.208-17.192-38.4-38.4-38.4s-38.4 17.192-38.4 38.4c0 81.528 32.338 155.329 86.15 208.55 53.387 52.801 126.43 85.85 208.25 85.85z" />
<glyph unicode="&#xe95b;" glyph-name="save" data-tags="save, store, keep, reserve, record" d="M640 896c10.184 0 19.948-4.048 27.151-11.25l230.4-230.4c7.199-7.201 11.249-16.966 11.249-27.15v-486.4c0-77.527-63.273-140.8-140.8-140.8h-512c-77.528 0-140.8 63.273-140.8 140.8v614.4c0 77.528 63.272 140.8 140.8 140.8h384zM256 819.2c-35.112 0-64-28.888-64-64v-614.4c0-35.113 28.888-64 64-64h12.8v294.4c0 35.031 28.968 64 64 64h358.4c36.040 0 64-29.471 64-64v-294.4h12.8c35.113 0 64 28.887 64 64v470.5l-207.898 207.9h-22.502v-138.25c-0.005-35.157-28.099-66.529-65.5-66.55h-202.25c-37.422 0-65.545 31.382-65.55 66.55v138.25h-12.3zM345.6 76.8h332.8v281.6h-332.8v-281.6zM345.1 691.2h179.7v128h-179.7v-128z" />
<glyph unicode="&#xe95c;" glyph-name="power-off" data-tags="power-off, shutdown, turn-off, stop, end" d="M783.35 773.65c14.996 14.994 39.306 14.995 54.303 0 83.154-83.158 135.148-198.783 135.148-325.65 0-126.761-51.415-242.478-135.25-325.75-83.574-83.011-198.62-135.050-325.55-135.050-126.762 0-242.474 51.415-325.75 135.25-83.015 83.574-135.049 198.615-135.050 325.55 0 126.762 51.416 242.474 135.25 325.75 15.047 14.939 39.356 14.844 54.3-0.2 14.939-15.047 14.844-39.356-0.2-54.3-69.759-69.3-112.55-165.57-112.55-271.25 0.001-105.508 43.194-201.426 112.75-271.452 69.3-69.755 165.571-112.548 271.25-112.548 105.508 0 201.426 43.192 271.452 112.748 69.76 69.299 112.548 165.571 112.548 271.252 0 105.58-43.233 201.932-112.65 271.35-14.996 14.996-14.996 39.304 0 54.3zM512 896c21.207 0 38.4-17.192 38.4-38.4v-409.6c0-21.207-17.193-38.4-38.4-38.4s-38.4 17.193-38.4 38.4v409.6c0 21.208 17.192 38.4 38.4 38.4z" />
<glyph unicode="&#xe95d;" glyph-name="tags" data-tags="tags, labels, prices, identifiers, stickers" d="M649.549 852.75c7.388-1.473 14.249-5.097 19.651-10.5l307.2-307.2c46.218-46.225 46.213-121.723 0-167.951l-289.3-289.3c-46.735-46.725-121.713-46.725-168.448 0-3.251 3.256-5.658 7.014-7.501 10.952l-11.4-11.448c-43.816-43.817-112.476-46.536-159.4-8.202l-9.1 8.202-307.2 306.647c-7.211 7.204-11.25 17.009-11.25 27.203v403.449c0.007 21.202 17.196 38.4 38.4 38.4h395.55c1.91 0.292 3.858 0.499 5.85 0.5h189.448l7.501-0.75zM89.6 427.1l295.95-295.501c16.743-16.737 43.103-16.732 59.85 0l289.299 289.3c16.225 16.236 16.23 43.118 0 59.35l-295.949 295.95h-349.15v-349.1zM789.002 534.55c46.223-46.225 46.218-121.719 0-167.948l-227-226.954c3.948-1.838 7.69-4.291 10.947-7.547 16.748-16.737 43.105-16.732 59.853 0l289.3 289.3c16.22 16.236 16.225 43.116 0 59.348l-295.951 295.95h-79.299l242.15-242.15zM256 691.2c35.328 0 64-28.672 64-64s-28.672-64-64-64c-35.328 0-64 28.672-64 64s28.672 64 64 64z" />
<glyph unicode="&#xe95e;" glyph-name="tag" data-tags="tag, label, price, identifier, sticker" d="M535.398 855.3c7.383-1.476 14.254-5.1 19.651-10.5l332.001-332c44.365-45.148 44.37-117.756 0-162.899-1.244-1.27-2.616-2.386-3.999-3.451l-273.203-273.249c-45.184-45.189-118.14-45.204-163.348-0.051l-331.8 331.3c-7.198 7.199-11.296 16.973-11.3 27.151v386.050c0 21.208 17.242 38.4 38.45 38.4h386.047l7.501-0.75zM180.25 447.601l320.55-320.102c15.214-15.186 39.544-15.201 54.751 0l276.951 277.002c0.625 0.625 1.336 1.172 1.997 1.751 12.646 15.263 11.981 37.975-1.997 52.448l-320.502 320.55h-331.75v-331.65zM332.8 691.2c35.328 0 64-28.672 64-64s-28.672-64-64-64c-35.328 0-64 28.672-64 64s28.672 64 64 64z" />
<glyph unicode="&#xe95f;" glyph-name="lock" data-tags="lock, secure, safe, restrict, close" d="M512 896c134.359 0 243.2-108.84 243.2-243.2v-115.2h12.8c77.763 0 140.8-63.038 140.8-140.8v-256c0-77.763-63.037-140.8-140.8-140.8h-512c-77.762 0-140.8 63.037-140.8 140.8v256c0 77.762 63.038 140.8 140.8 140.8h12.8v115.2c0 134.36 108.84 243.2 243.2 243.2zM256 460.8c-35.346 0-64-28.652-64-64v-256c0-35.348 28.654-64 64-64h512c35.348 0 64 28.652 64 64v256c0 35.348-28.652 64-64 64h-512zM512 819.2c-91.944 0-166.4-74.456-166.4-166.4v-115.2h332.8v115.2c0 91.944-74.455 166.4-166.4 166.4z" />
<glyph unicode="&#xe960;" glyph-name="unlock" data-tags="unlock, open, access, free, unchain" d="M512 896c134.359 0 243.2-108.84 243.2-243.2 0-21.208-17.193-38.4-38.4-38.4s-38.4 17.192-38.4 38.4c0 91.944-74.455 166.4-166.4 166.4s-166.4-74.456-166.4-166.4v-115.2h422.4c77.763 0 140.8-63.038 140.8-140.8v-256c0-77.763-63.037-140.8-140.8-140.8h-512c-77.762 0-140.8 63.037-140.8 140.8v256c0 77.762 63.038 140.8 140.8 140.8h12.8v115.2c0 134.36 108.84 243.2 243.2 243.2zM256 460.8c-35.346 0-64-28.652-64-64v-256c0-35.348 28.654-64 64-64h512c35.348 0 64 28.652 64 64v256c0 35.348-28.652 64-64 64h-512z" />
<glyph unicode="&#xe961;" glyph-name="inbox" data-tags="inbox, email, messages, mail, receive" d="M684.549 858.65c32.246-0.003 63.135-17.371 78.648-47.15l186.204-300.3c6.523-6.883 10.598-16.119 10.598-26.35v-307.202c-0.005-77.522-63.278-140.8-140.8-140.8h-614.4c-77.523 0-140.793 63.278-140.8 140.8v308.101c0.009 0.401 0.078 0.8 0.1 1.2 0.053 0.977 0.126 1.944 0.25 2.9 0.087 0.669 0.178 1.336 0.3 2 0.083 0.455 0.2 0.901 0.3 1.35 0.424 1.916 0.98 3.805 1.7 5.65 0.183 0.468 0.349 0.942 0.55 1.4 0.726 1.663 1.578 3.281 2.55 4.85l189.95 306.4c15.7 29.263 46.322 47.15 78.75 47.15h346.099zM140.8 177.649c0.007-35.103 28.892-64 64-64h614.4c35.108 0 63.995 28.897 64 64v268.8h-182.149c-13.153-93.286-93.082-164.838-190.051-164.849-96.98 0-176.946 71.557-190.1 164.849h-180.1v-268.8zM338.45 781.8c-4.624 0-9.15-2.751-11.25-6.95-0.518-1.033-1.091-2.068-1.7-3.050l-154.1-248.55h187c21.204 0 38.395-17.197 38.4-38.4-0.002-2.879-0.397-5.702-1-8.4v-2.85c0.013-63.775 51.424-115.2 115.2-115.2 63.766 0.010 115.186 51.436 115.202 115.2v11.25c0.005 21.203 17.193 38.4 38.4 38.4h186.998l-154.102 248.55c-0.768 1.247-1.521 2.573-2.145 3.9-1.464 3.095-5.274 6.098-10.803 6.1h-346.099z" />
<glyph unicode="&#xe962;" glyph-name="video" data-tags="video, movie, clip, footage, film" d="M563.2 793.6c77.763 0 140.8-63.038 140.8-140.8v-85.75l197.852 118.7c11.858 7.108 26.614 7.259 38.646 0.45 12.042-6.816 19.502-19.566 19.502-33.4v-409.6c0-13.834-7.46-26.583-19.502-33.398-12.032-6.81-26.788-6.661-38.646 0.445l-197.852 118.753v-85.801c0-77.763-63.037-140.8-140.8-140.8h-358.4c-77.762 0-140.8 63.037-140.8 140.8v409.6c0 77.762 63.038 140.8 140.8 140.8h358.4zM204.8 716.8c-35.346 0-64-28.654-64-64v-409.6c0-35.348 28.654-64 64-64h358.4c35.348 0 64 28.652 64 64v409.6c0 35.346-28.652 64-64 64h-358.4zM704 477.45v-58.849l179.2-107.551v273.95l-179.2-107.55z" />
<glyph unicode="&#xe963;" glyph-name="folder" data-tags="folder, file-holder, organizer, container, directory" d="M89.6 217.6v460.8c0 77.528 63.272 140.8 140.8 140.8h128c11.206 0 21.855-4.894 29.15-13.4l142.098-165.8h263.951c77.527 0 140.8-63.272 140.8-140.8v-281.6c0-77.527-63.273-140.8-140.8-140.8h-563.2c-77.528 0-140.8 63.273-140.8 140.8zM166.4 217.6c0-35.113 28.888-64 64-64h563.2c35.113 0 64 28.887 64 64v281.6c0 35.112-28.887 64-64 64h-281.6c-11.206 0-21.855 4.894-29.15 13.4l-142.1 165.8h-110.35c-35.112 0-64-28.888-64-64v-460.8z" />
<glyph unicode="&#xe964;" glyph-name="folder-open" data-tags="folder-open, access-files, open-directory, open-folder, file-access" d="M299 819.2c11.453 0 22.305-5.121 29.6-13.95l136.5-165.25h253.252c76.728-0.008 137.201-64.558 137.201-140.8v-12.8h91.648c13.404 0 25.836-6.997 32.799-18.45 6.963-11.467 7.439-25.746 1.249-37.65l-173.046-332.8c-6.61-12.708-19.727-20.7-34.053-20.7h-697.349c-13.407 0-25.834 6.999-32.8 18.452-3.711 6.108-5.502 13.020-5.5 19.948h-0.1v563.2c0 76.241 60.469 140.791 137.2 140.8h123.4zM140.050 153.6h610.752l133.146 256h-610.747l-133.15-256zM175.6 742.4c-31.799-0.009-60.4-27.613-60.4-64v-406.149l100.6 193.449 2.75 4.55c7.136 10.044 18.764 16.148 31.3 16.15h528.902v12.8c0 36.388-28.6 63.992-60.401 64h-271.351c-11.457 0-22.355 5.115-29.65 13.95l-136.45 165.25h-105.3z" />
<glyph unicode="&#xe965;" glyph-name="eye-slash" data-tags="eye-slash, hide, private, unseen, invisible" d="M177.663 782.35c14.996 14.99 39.306 14.994 54.3 0l614.403-614.398c14.986-14.996 14.986-39.306 0-54.303-14.996-14.991-39.306-14.986-54.303 0l-54.149 54.149c-62.218-39.839-137.677-65.393-225.9-65.398-153.918 0-265.927 85.555-337.452 166.6-35.957 40.745-62.632 81.341-80.3 111.698-8.852 15.212-15.502 27.986-20 37.053-2.246 4.526-3.97 8.146-5.15 10.701-0.586 1.27-1.076 2.273-1.4 3-0.16 0.358-0.254 0.681-0.35 0.896-0.045 0.102-0.118 0.184-0.15 0.251l-0.050 0.102v0.046c0.141 0.082 2.35 1.050 35.25 15.252l-35.25-15.201c-4.13 9.58-4.183 20.43-0.15 30.051v0.1c0.019 0.039 0.077 0.096 0.1 0.15 0.048 0.112 0.127 0.28 0.2 0.45 0.153 0.357 0.338 0.852 0.6 1.45 0.544 1.241 1.338 2.998 2.35 5.2 2.026 4.408 5.025 10.679 8.95 18.4 7.843 15.429 19.551 36.849 35.2 61.2 25.472 39.631 61.967 88.098 110.151 131.35l-46.9 46.9c-14.996 14.996-14.996 39.304 0 54.3zM279.064 626.65c-42.943-37.87-76.337-81.502-100.050-118.4-14.028-21.828-24.474-40.923-31.35-54.45-0.997-1.961-1.905-3.836-2.75-5.55 3.779-7.454 9.011-17.371 15.75-28.947 15.851-27.238 39.644-63.462 71.45-99.502 64.027-72.55 156.834-140.6 279.902-140.6 65.69 0 122.194 17.096 169.999 44.498l-82.55 82.55c-64.241-39.788-149.381-31.836-205.201 23.951-55.824 55.823-63.859 141.051-24.050 205.301l-91.15 91.15zM512.015 793.6c153.912-0.005 265.928-85.555 337.449-166.6 35.958-40.744 62.633-81.341 80.302-111.7 8.852-15.212 15.503-27.984 19.999-37.050 2.248-4.529 3.973-8.146 5.151-10.7 0.584-1.27 1.075-2.274 1.398-3 0.164-0.36 0.256-0.682 0.353-0.9 0.046-0.101 0.118-0.18 0.148-0.25l0.051-0.1v-0.050c0-0.018-0.476-0.238-35.251-15.25l35.251-15.201-0.154-0.297c-0.072-0.174-0.174-0.42-0.297-0.701-0.256-0.573-0.599-1.408-1.050-2.401-0.911-1.992-2.237-4.823-3.953-8.351-3.441-7.081-8.504-17.096-15.247-29.199-13.481-24.182-33.761-57.032-61.102-91.95-13.066-16.691-37.202-19.604-53.898-6.548-16.696 13.071-19.666 37.202-6.6 53.898 24.366 31.119 42.506 60.493 54.497 82.002 4.029 7.229 7.286 13.588 9.902 18.749-3.768 7.42-8.94 17.254-15.601 28.7-15.852 27.234-39.644 63.458-71.45 99.5-64.026 72.549-156.836 140.595-279.9 140.6-24.205 0-47.127-2.74-68.802-7.35-20.737-4.412-41.127 8.818-45.55 29.55-4.412 20.74 8.814 41.132 29.55 45.55 26.443 5.625 54.745 9.050 84.802 9.050zM427.464 478.25c-11.366-31.643-4.346-68.302 21.1-93.748 25.437-25.416 62.023-32.343 93.649-21.002l-114.749 114.75zM956.867 463.2c4.173-9.681 4.204-20.663 0.051-30.35l-35.302 15.15 35.251 15.2z" />
<glyph unicode="&#xe966;" glyph-name="eye" data-tags="eye, view, see, look, watch" d="M512 793.6c153.917-0.004 265.928-85.555 337.449-166.6 35.958-40.744 62.633-81.34 80.302-111.7 8.852-15.212 15.503-27.983 19.999-37.050 2.248-4.53 3.973-8.146 5.151-10.7 0.589-1.271 1.075-2.274 1.403-3 0.159-0.36 0.251-0.682 0.348-0.9 0.046-0.101 0.118-0.18 0.148-0.25l0.051-0.1v-0.050c0-0.018-0.471-0.237-35.251-15.25 34.78-15.012 35.251-15.232 35.251-15.252v-0.046l-0.051-0.102c-0.031-0.067-0.102-0.148-0.148-0.251-0.097-0.215-0.189-0.538-0.348-0.896-0.328-0.727-0.814-1.731-1.403-3-1.178-2.555-2.903-6.175-5.151-10.701-4.495-9.068-11.146-21.837-19.999-37.053-17.669-30.356-44.344-70.953-80.302-111.698-71.521-81.044-183.532-166.595-337.449-166.6-153.917 0-265.925 85.555-337.45 166.6-35.957 40.745-62.632 81.341-80.3 111.698-8.852 15.217-15.502 27.986-20 37.053-2.247 4.526-3.971 8.146-5.15 10.701-0.587 1.27-1.076 2.273-1.4 3-0.161 0.358-0.255 0.681-0.35 0.896-0.045 0.102-0.118 0.184-0.15 0.251l-0.050 0.102v0.046c0.126 0.072 2.222 0.993 35.25 15.252-33.028 14.257-35.124 15.179-35.25 15.25v0.050l0.050 0.1c0.032 0.070 0.105 0.148 0.15 0.25 0.095 0.219 0.189 0.541 0.35 0.9 0.324 0.727 0.813 1.73 1.4 3 1.18 2.554 2.904 6.171 5.15 10.7 4.498 9.067 11.148 21.838 20 37.050 17.668 30.36 44.343 70.956 80.3 111.7 71.525 81.046 183.534 166.6 337.45 166.6zM512 716.8c-123.067 0-215.873-68.050-279.9-140.6-31.806-36.042-55.599-72.265-71.45-99.5-6.667-11.457-11.88-21.277-15.65-28.7 3.77-7.424 8.983-17.244 15.65-28.698 15.851-27.238 39.644-63.462 71.45-99.502 64.027-72.55 156.833-140.6 279.9-140.6 123.064 0.005 215.875 68.050 279.9 140.6 31.805 36.045 55.598 72.264 71.45 99.502 6.661 11.443 11.832 21.279 15.601 28.698-3.768 7.42-8.94 17.253-15.601 28.7-15.852 27.235-39.644 63.457-71.45 99.5-64.026 72.55-156.836 140.596-279.9 140.6zM512 614.4c91.894-0.006 166.4-74.504 166.4-166.4 0-91.899-74.506-166.395-166.4-166.4-91.9 0-166.4 74.501-166.4 166.4s74.5 166.4 166.4 166.4zM512 537.6c-49.484 0-89.6-40.115-89.6-89.6s40.116-89.6 89.6-89.6c49.48 0.005 89.6 40.12 89.6 89.6s-40.12 89.594-89.6 89.6zM102.399 448l-35.25-15.201c-4.185 9.708-4.185 20.697 0 30.402l35.25-15.2zM956.851 463.2c4.183-9.702 4.183-20.699 0-30.402l-35.251 15.201 35.251 15.2z" />
<glyph unicode="&#xe967;" glyph-name="list" data-tags="list, items, tasks, enumeration, record" d="M160 268.8c28.277 0 51.2-22.922 51.2-51.2s-22.923-51.2-51.2-51.2c-28.277 0-51.2 22.922-51.2 51.2s22.923 51.2 51.2 51.2zM876.8 256c21.207 0 38.4-17.193 38.4-38.4s-17.193-38.4-38.4-38.4h-563.2c-21.208 0-38.4 17.193-38.4 38.4s17.192 38.4 38.4 38.4h563.2zM160 499.2c28.277 0 51.2-22.923 51.2-51.2 0-28.278-22.923-51.2-51.2-51.2s-51.2 22.922-51.2 51.2c0 28.277 22.923 51.2 51.2 51.2zM876.8 486.4c21.207 0 38.4-17.192 38.4-38.4s-17.193-38.4-38.4-38.4h-563.2c-21.208 0-38.4 17.193-38.4 38.4s17.192 38.4 38.4 38.4h563.2zM160 729.6c28.277 0 51.2-22.923 51.2-51.2s-22.923-51.2-51.2-51.2c-28.277 0-51.2 22.923-51.2 51.2s22.923 51.2 51.2 51.2zM876.8 716.8c21.207 0 38.4-17.192 38.4-38.4s-17.193-38.4-38.4-38.4h-563.2c-21.208 0-38.4 17.192-38.4 38.4s17.192 38.4 38.4 38.4h563.2z" />
<glyph unicode="&#xe968;" glyph-name="map-marker" data-tags="map-marker, location, pin, place, position" d="M512 921.6c219.1 0 396.8-176.184 396.8-394.25-0.005-154.015-98.698-292.056-189.798-387.651-46.346-48.63-92.564-88.166-127.15-115.548-17.326-13.716-31.826-24.458-42.051-31.8-5.115-3.676-9.18-6.508-12.001-8.453-1.408-0.968-2.529-1.725-3.297-2.248-0.379-0.256-0.686-0.456-0.901-0.599-0.102-0.067-0.189-0.108-0.251-0.148l-0.102-0.051v-0.051c-0.010-0.005-0.031-0.005-21.248 32l21.202-32c-12.856-8.515-29.546-8.515-42.402 0l21.2 32c-21.216-32.005-21.239-32.005-21.25-32v0.051l-0.1 0.051c-0.062 0.041-0.151 0.082-0.25 0.148-0.215 0.143-0.524 0.343-0.9 0.599-0.771 0.522-1.893 1.28-3.3 2.248-2.821 1.946-6.885 4.777-12 8.453-10.228 7.342-24.725 18.084-42.050 31.8-34.585 27.382-80.805 66.918-127.15 115.548-91.104 95.596-189.796 233.636-189.8 387.651 0 218.066 177.7 394.25 396.8 394.25zM512 844.8c-177.188 0-320-142.3-320-317.45 0.004-122.968 80.508-242.217 168.6-334.649 43.246-45.379 86.639-82.534 119.25-108.349 12.561-9.948 23.514-18.125 32.15-24.453 8.637 6.328 19.589 14.505 32.148 24.453 32.614 25.815 76.006 62.971 119.25 108.349 88.095 92.431 168.596 211.681 168.602 334.649 0 175.15-142.812 317.45-320 317.45zM512 691.2c77.763 0 140.8-63.038 140.8-140.8s-63.037-140.8-140.8-140.8c-77.762 0-140.8 63.038-140.8 140.8s63.038 140.8 140.8 140.8zM512 614.4c-35.346 0-64-28.654-64-64s28.654-64 64-64c35.348 0 64 28.654 64 64s-28.652 64-64 64z" />
<glyph unicode="&#xe969;" glyph-name="table" data-tags="table, spreadsheet, grid, chart, layout" d="M819.2 844.8c77.763 0 140.8-63.038 140.8-140.8v-512c0-77.763-63.037-140.8-140.8-140.8h-614.4c-77.762 0-140.8 63.037-140.8 140.8v512c0 77.762 63.038 140.8 140.8 140.8h614.4zM550.4 128h268.8c35.348 0 64 28.652 64 64v217.6h-332.8v-281.6zM140.8 192c0-35.348 28.654-64 64-64h268.8v281.6h-332.8v-217.6zM550.4 486.4h332.8v217.6c0 35.346-28.652 64-64 64h-268.8v-281.6zM204.8 768c-35.346 0-64-28.654-64-64v-217.6h332.8v281.6h-268.8z" />
<glyph unicode="&#xe96a;" glyph-name="lock-open" data-tags="lock-open, unlock, access, open, unchain" d="M742.4 896c134.359 0 243.2-108.84 243.2-243.2 0-21.208-17.193-38.4-38.4-38.4s-38.4 17.192-38.4 38.4c0 91.944-74.455 166.4-166.4 166.4s-166.4-74.456-166.4-166.4v-115.2h12.8c77.763 0 140.8-63.038 140.8-140.8v-256c0-77.763-63.037-140.8-140.8-140.8h-358.4c-77.762 0-140.8 63.037-140.8 140.8v256c0 77.762 63.038 140.8 140.8 140.8h268.8v115.2c0 134.36 108.841 243.2 243.2 243.2zM230.4 460.8c-35.346 0-64-28.652-64-64v-256c0-35.348 28.654-64 64-64h358.4c35.348 0 64 28.652 64 64v256c0 35.348-28.652 64-64 64h-358.4z" />
<glyph unicode="&#xe96b;" glyph-name="dollar" data-tags="dollar, money, currency, cash, payment" d="M512 896c21.207 0 38.4-17.192 38.4-38.4v-64h166.4c21.207 0 38.4-17.192 38.4-38.4s-17.193-38.4-38.4-38.4h-166.4v-230.4h38.4c114.207 0 217.6-80.415 217.6-192s-103.393-192-217.6-192h-38.4v-64c0-21.207-17.193-38.4-38.4-38.4s-38.4 17.193-38.4 38.4v64h-217.6c-21.208 0-38.4 17.193-38.4 38.4s17.192 38.4 38.4 38.4h217.6v230.4h-38.4c-114.207 0-217.6 80.417-217.6 192s103.393 192 217.6 192h38.4v64c0 21.208 17.192 38.4 38.4 38.4zM550.4 179.2h38.4c83.425 0 140.8 56.801 140.8 115.2s-57.375 115.2-140.8 115.2h-38.4v-230.4zM435.2 716.8c-83.425 0-140.8-56.799-140.8-115.2s57.375-115.2 140.8-115.2h38.4v230.4h-38.4z" />
<glyph unicode="&#xe96c;" glyph-name="camera" data-tags="camera, photo, picture, snapshot, image" d="M610.801 819.2c47.017 0 90.819-23.206 116.951-62.65l60.8-90.95h30.648c77.527 0 140.8-63.272 140.8-140.8v-307.2c0-77.527-63.273-140.8-140.8-140.8h-614.4c-77.528 0-140.8 63.273-140.8 140.8v307.2c0 77.528 63.272 140.8 140.8 140.8h30.65l60.8 90.95c26.192 39.531 70.552 62.65 116.95 62.65h197.601zM413.2 742.4c-21.127 0-41.241-10.628-52.95-28.35l-0.15-0.15-72.15-108.050c-7.125-10.663-19.126-17.050-31.95-17.050h-51.2c-35.112 0-64-28.888-64-64v-307.2c0-35.113 28.888-64 64-64h614.4c35.113 0 64 28.887 64 64v307.2c0 35.112-28.887 64-64 64h-51.2c-12.826 0-24.827 6.387-31.949 17.050l-72.299 108.2c-11.771 17.809-31.416 28.35-52.951 28.35h-197.601zM512 563.2c91.899 0 166.4-74.5 166.4-166.4 0-91.899-74.501-166.4-166.4-166.4s-166.4 74.501-166.4 166.4c0 91.9 74.5 166.4 166.4 166.4zM512 486.4c-49.485 0-89.6-40.115-89.6-89.6s40.115-89.6 89.6-89.6c49.485 0 89.6 40.115 89.6 89.6s-40.115 89.6-89.6 89.6z" />
<glyph unicode="&#xe96d;" glyph-name="chart-bar" data-tags="chart-bar, graphic, diagram, stats, bar-chart" d="M128 870.4c21.208 0 38.4-17.192 38.4-38.4v-729.6h729.6c21.207 0 38.4-17.193 38.4-38.4s-17.193-38.4-38.4-38.4h-768c-21.208 0-38.4 17.193-38.4 38.4v768c0 21.208 17.192 38.4 38.4 38.4zM307.2 486.4c21.208 0 38.4-17.192 38.4-38.4v-204.8c0-21.207-17.192-38.4-38.4-38.4s-38.4 17.193-38.4 38.4v204.8c0 21.208 17.192 38.4 38.4 38.4zM486.4 691.2c21.208 0 38.4-17.192 38.4-38.4v-409.6c0-21.207-17.192-38.4-38.4-38.4s-38.4 17.193-38.4 38.4v409.6c0 21.208 17.192 38.4 38.4 38.4zM665.6 486.4c21.207 0 38.4-17.192 38.4-38.4v-204.8c0-21.207-17.193-38.4-38.4-38.4s-38.4 17.193-38.4 38.4v204.8c0 21.208 17.193 38.4 38.4 38.4zM844.8 691.2c21.207 0 38.4-17.192 38.4-38.4v-409.6c0-21.207-17.193-38.4-38.4-38.4s-38.4 17.193-38.4 38.4v409.6c0 21.208 17.193 38.4 38.4 38.4z" />
<glyph unicode="&#xe96e;" glyph-name="sitemap" data-tags="sitemap, hierarchy, structure, tree, network" d="M588.8 896c49.485 0 89.6-40.115 89.6-89.6v-153.6c0-49.485-40.115-89.6-89.6-89.6h-38.4v-76.8h268.8c49.367 0 89.6-40.233 89.6-89.6v-64h12.8c49.485 0 89.6-40.115 89.6-89.6v-102.4c0-49.485-40.115-89.6-89.6-89.6h-102.4c-49.485 0-89.6 40.115-89.6 89.6v102.4c0 49.485 40.115 89.6 89.6 89.6h12.8v64c0 6.953-5.847 12.8-12.8 12.8h-268.8v-76.8h12.8c49.367 0 89.6-40.233 89.6-89.6v-102.4c0-49.367-40.233-89.6-89.6-89.6h-102.4c-49.368 0-89.6 40.233-89.6 89.6v102.4c0 49.367 40.232 89.6 89.6 89.6h12.8v76.8h-268.8c-6.952 0-12.8-5.847-12.8-12.8v-64h12.8c49.485 0 89.6-40.115 89.6-89.6v-102.4c0-49.485-40.115-89.6-89.6-89.6h-102.4c-49.485 0-89.6 40.115-89.6 89.6v102.4c0 49.485 40.115 89.6 89.6 89.6h12.8v64c0 49.367 40.232 89.6 89.6 89.6h268.8v76.8h-38.4c-49.485 0-89.6 40.115-89.6 89.6v153.6c0 49.485 40.115 89.6 89.6 89.6h153.6zM102.4 256c-7.069 0-12.8-5.729-12.8-12.8v-102.4c0-7.071 5.731-12.8 12.8-12.8h102.4c7.069 0 12.8 5.729 12.8 12.8v102.4c0 7.071-5.731 12.8-12.8 12.8h-102.4zM460.8 256c-6.952 0-12.8-5.847-12.8-12.8v-102.4c0-6.953 5.848-12.8 12.8-12.8h102.4c6.953 0 12.8 5.847 12.8 12.8v102.4c0 6.953-5.847 12.8-12.8 12.8h-102.4zM819.2 256c-7.071 0-12.8-5.729-12.8-12.8v-102.4c0-7.071 5.729-12.8 12.8-12.8h102.4c7.071 0 12.8 5.729 12.8 12.8v102.4c0 7.071-5.729 12.8-12.8 12.8h-102.4zM435.2 819.2c-7.069 0-12.8-5.731-12.8-12.8v-153.6c0-7.069 5.731-12.8 12.8-12.8h153.6c7.071 0 12.8 5.731 12.8 12.8v153.6c0 7.069-5.729 12.8-12.8 12.8h-153.6z" />
<glyph unicode="&#xe96f;" glyph-name="wifi" data-tags="wifi, internet, wireless, network, connection" d="M512.502 179.2c21.207 0 38.4-17.193 38.4-38.4-0.005-21.207-17.198-38.4-38.4-38.4h-0.503c-21.206 0-38.397 17.193-38.4 38.4 0 21.207 17.193 38.4 38.4 38.4h0.503zM354.799 330.747c94.091 70.707 220.879 70.605 315.353 0.051 16.983-12.692 20.485-36.762 7.798-53.75-12.687-16.978-36.762-20.47-53.75-7.798-67.313 50.268-156.626 50.212-223.301 0.097-16.949-12.723-41.011-9.339-53.75 7.603-12.74 16.947-9.297 41.052 7.65 53.796zM215.749 474.748c172.235 152.088 423.366 152.045 596.053 0.050 15.913-14.010 17.454-38.283 3.451-54.201-14.013-15.913-38.287-17.459-54.2-3.451-143.729 126.505-351.356 126.418-494.503 0-15.897-14.013-40.169-12.488-54.2 3.4-14.020 15.898-12.487 40.168 3.4 54.202zM76.198 619.449c248.733 231.86 622.871 231.86 871.601 0 15.498-14.458 16.343-38.741 1.9-54.25-14.459-15.51-38.784-16.358-54.298-1.9-219.228 204.339-547.574 204.339-766.802 0-15.513-14.457-39.84-13.61-54.3 1.9-14.442 15.508-13.595 39.792 1.9 54.25z" />
<glyph unicode="&#xe970;" glyph-name="sign-in" data-tags="sign-in, login, enter, connect, access" d="M819.2 896c73.185 0 140.8-54.068 140.8-129.55v-636.899c0-75.484-67.615-129.551-140.8-129.551h-153.6c-21.207 0-38.4 17.193-38.4 38.4s17.193 38.4 38.4 38.4h153.6c39.455 0 64 27.878 64 52.751v636.899c0 24.87-24.545 52.75-64 52.75h-153.6c-21.207 0-38.4 17.192-38.4 38.4s17.193 38.4 38.4 38.4h153.6zM433.65 679.95c14.996 14.996 39.304 14.996 54.3 0l204.802-204.8c2.478-2.478 4.388-5.298 6.047-8.2 0.799-1.39 1.633-2.758 2.253-4.25 1.060-2.56 1.818-5.207 2.299-7.9 0.394-2.21 0.65-4.476 0.65-6.8 0-2.304-0.261-4.557-0.65-6.748-0.481-2.698-1.244-5.34-2.299-7.9-0.62-1.495-1.459-2.862-2.253-4.25-1.659-2.918-3.558-5.765-6.047-8.253l-204.802-204.8c-14.996-14.996-39.304-14.996-54.3 0s-14.996 39.306 0 54.303l139.252 139.249h-470.502c-21.208 0-38.4 17.193-38.4 38.4s17.192 38.4 38.4 38.4h470.502l-139.252 139.25c-14.996 14.996-14.996 39.304 0 54.3z" />
<glyph unicode="&#xe971;" glyph-name="sign-out" data-tags="sign-out, logout, exit, leave, disconnect" d="M358.4 896c21.208 0 38.4-17.192 38.4-38.4s-17.192-38.4-38.4-38.4h-153.6c-39.456 0-64-27.879-64-52.75v-636.899c0-24.873 24.544-52.751 64-52.751h153.6c21.208 0 38.4-17.193 38.4-38.4s-17.192-38.4-38.4-38.4h-153.6c-73.184 0-140.8 54.067-140.8 129.551v636.899c0 75.482 67.616 129.55 140.8 129.55h153.6zM689.649 679.95c14.996 14.996 39.306 14.996 54.303 0l204.8-204.8c2.478-2.478 4.388-5.298 6.047-8.2 0.799-1.39 1.633-2.758 2.253-4.25 1.060-2.56 1.818-5.207 2.299-7.9 0.394-2.21 0.65-4.476 0.65-6.8 0-2.304-0.261-4.557-0.65-6.748-0.481-2.698-1.244-5.34-2.299-7.9-0.62-1.495-1.459-2.862-2.253-4.25-1.659-2.918-3.558-5.765-6.047-8.253l-204.8-204.8c-14.996-14.996-39.306-14.996-54.303 0s-14.996 39.306 0 54.303l139.254 139.249h-470.502c-21.208 0-38.4 17.193-38.4 38.4s17.192 38.4 38.4 38.4h470.502l-139.254 139.25c-14.996 14.996-14.996 39.304 0 54.3z" />
<glyph unicode="&#xe972;" glyph-name="image" data-tags="image, picture, photo, graphic, illustration" d="M819.2 844.8c77.763 0 140.8-63.038 140.8-140.8v-512c0-77.763-63.037-140.8-140.8-140.8h-614.4c-77.762 0-140.8 63.037-140.8 140.8v512c0 77.762 63.038 140.8 140.8 140.8h614.4zM542.802 128h276.398c30.459 0 55.834 21.299 62.3 49.802l-162.15 162.145-176.548-211.948zM140.8 229.299v-37.299c0-35.348 28.654-64 64-64h238l128.95 154.752-210.801 210.798-220.15-264.251zM204.8 768c-35.346 0-64-28.654-64-64v-354.698l188.1 225.698 2.75 2.95c6.698 6.504 15.581 10.37 25 10.8 10.778 0.489 21.271-3.571 28.9-11.2l235.552-235.549 66.196 79.401 2.749 2.949c6.702 6.502 15.58 10.368 25.001 10.798 10.778 0.492 21.274-3.569 28.902-11.197l139.249-139.254v419.302c0 35.346-28.652 64-64 64h-614.4z" />
<glyph unicode="&#xe973;" glyph-name="images" data-tags="images, pictures, photos, graphics, illustrations" d="M844.8 870.4c77.763 0 140.8-63.038 140.8-140.8v-409.6c0-77.763-63.037-140.8-140.8-140.8h-12.8v-12.8c0-77.527-63.273-140.8-140.8-140.8h-512c-77.528 0-140.8 63.273-140.8 140.8v409.6c0 77.528 63.272 140.8 140.8 140.8h12.8v12.8c0 77.762 63.038 140.8 140.8 140.8h512zM179.2 640c-35.112 0-64-28.888-64-64v-409.6c0-35.113 28.888-64 64-64h512c35.113 0 64 28.887 64 64v12.8h-422.4c-77.762 0-140.8 63.037-140.8 140.8v320h-12.8zM627.302 256h217.498c32.599 0 59.412 24.381 63.401 55.9l-135.803 114.852-145.096-170.752zM268.8 335.048v-15.048c0-35.348 28.654-64 64-64h193.7l107.75 126.751-177.1 173.399-188.35-221.102zM332.8 793.6c-35.346 0-64-28.654-64-64v-276.1l156.65 183.75 2.7 2.9c6.678 6.367 15.495 10.13 24.8 10.55 10.628 0.473 21-3.456 28.6-10.9l202.549-198.399 54.651 64.2 2.698 2.9c14.019 13.438 36.209 14.359 51.354 1.55l115.999-98.1v317.65c0 35.346-28.652 64-64 64h-512z" />
<glyph unicode="&#xe974;" glyph-name="money-bill" data-tags="money-bill, cash, currency, banknote, bucks" d="M265.2 794.1c1.979 0 3.928-0.204 5.85-0.5h599.852c49.367 0 89.6-40.232 89.6-89.6v-111.6c0-0.083-0.051-0.166-0.051-0.25 0-0.1 0.051-0.2 0.051-0.3v-288.249c-0.005-2.867-0.389-5.668-1.004-8.402v-103.7c0-49.362-40.238-89.59-89.6-89.6h-604.148c-1.978 0-3.928 0.205-5.85 0.502h-106.8c-49.368 0-89.6 40.233-89.6 89.6v111.601c0 1.981 0.204 3.927 0.5 5.847v395.053c0 49.368 40.232 89.6 89.6 89.6h111.6zM319.050 716.8c0.937-6.823 1.45-13.831 1.45-21-0.003-43.922-17.668-83.267-46.55-112.15-28.284-28.283-68.11-46.547-112.15-46.55-7.162 0-14.168 0.54-21 1.5v-181.598c1.949 0.266 3.921 0.41 5.9 0.599 1.331 0.128 2.657 0.353 4 0.451 2.199 0.154 4.418 0.189 6.65 0.246 1.308 0.036 2.632 0.102 3.95 0.102h0.5c43.922 0 83.267-17.715 112.15-46.602 28.869-28.877 46.544-68.188 46.55-112.097 0-7.158-0.492-14.172-1.45-21.002h385.902c-0.963 6.835-1.454 13.839-1.454 21.002 0.005 43.919 17.72 83.22 46.602 112.097 28.877 28.877 68.183 46.597 112.097 46.602h0.502c7.153 0 14.172-0.492 21.002-1.449v181.599c-6.82-0.935-13.834-1.45-21.002-1.45-43.909 0.006-83.22 17.681-112.097 46.55-28.288 28.284-46.602 68.11-46.602 112.15 0 7.159 0.492 14.17 1.449 21h-386.399zM858.148 281.4c-20.716-1.172-39.526-10.179-53.248-23.9-15.145-15.145-24.095-35.174-24.1-57.8 0-7.322 0.998-14.326 2.898-21.002h86.2c6.948 0.010 12.8 5.852 12.8 12.8v86.702c-6.661 1.894-13.681 2.898-20.997 2.898-1.198 0-2.381 0.174-3.553 0.302zM151.15 280.899c-3.55-0.497-7.068-1.254-10.55-2.248-0.101-0.031-0.199-0.072-0.3-0.102v-86.548c0-6.953 5.848-12.8 12.8-12.8h86.7c1.896 6.666 2.9 13.676 2.9 21.002-0.002 22.513-8.848 42.481-23.85 57.6-14.644 14.5-35.032 23.726-57.3 23.798-3.54-0.010-7.010-0.23-10.4-0.701zM512 627.2c98.97 0 179.2-80.23 179.2-179.2s-80.23-179.2-179.2-179.2c-98.97 0-179.2 80.23-179.2 179.2s80.23 179.2 179.2 179.2zM512 550.4c-56.554 0-102.4-45.846-102.4-102.4 0-56.556 45.846-102.4 102.4-102.4 56.556 0 102.4 45.844 102.4 102.4 0 56.554-45.844 102.4-102.4 102.4zM784.2 716.8c-1.894-6.668-2.898-13.676-2.898-21 0-22.488 8.827-42.438 23.798-57.55 14.705-14.585 35.21-23.844 57.6-23.85 7.132 0 14.131 1.107 21.002 3.1v86.5c0 6.952-5.847 12.8-12.8 12.8h-86.702zM153.6 717.3c-6.952 0-12.8-5.848-12.8-12.8v-86.65c6.672-1.898 13.671-2.95 21-2.95 22.5 0.002 42.435 8.863 57.55 23.85 14.57 14.7 23.844 35.172 23.85 57.55 0 7.124-1.060 14.135-3.050 21h-86.55z" />
<glyph unicode="&#xe975;" glyph-name="eject" data-tags="eject, remove, release, take-out, disconnect" d="M819.2 332.8c49.485 0 89.595-40.115 89.6-89.6v-102.4c0-49.485-40.115-89.6-89.6-89.6h-614.404c-49.478 0.010-89.601 40.12-89.601 89.6v102.4c0.004 49.48 40.125 89.595 89.601 89.6h614.404zM204.796 256c-7.059-0.005-12.797-5.74-12.8-12.8v-102.4c0-7.060 5.738-12.79 12.8-12.8h614.404c7.071 0 12.8 5.729 12.8 12.8v102.4c-0.005 7.066-5.734 12.8-12.8 12.8h-614.404zM487.748 836.205c15.079 12.301 37.339 11.399 51.398-2.65l358.405-358.403c10.982-10.981 14.29-27.501 8.351-41.852-5.944-14.346-19.968-23.7-35.502-23.7h-716.804c-15.525 0.010-29.559 9.359-35.501 23.7-5.934 14.346-2.625 30.874 8.35 41.852l361.302 361.052zM246.297 486.403h531.406l-265.704 265.701-265.702-265.701z" />
<glyph unicode="&#xe976;" glyph-name="volume-down" data-tags="volume-down, low-sound, decrease-volume, quiet, softer" d="M641.597 836.401c11.53 9.221 27.346 10.994 40.653 4.6 13.297-6.397 21.75-19.845 21.75-34.6v-716.801c0-14.756-8.453-28.201-21.75-34.601-13.302-6.39-29.123-4.618-40.653 4.603l-245.497 196.398h-242.5c-21.208 0-38.399 17.193-38.4 38.4v307.201c0 21.208 17.192 38.4 38.4 38.4h242.5l245.497 196.4zM433.6 571.601c-6.809-5.447-15.281-8.4-24-8.4h-217.6v-230.401h217.6c8.719 0 17.191-2.954 24-8.397l193.6-154.854v556.952l-193.6-154.9zM801.802 613.351c16.947 12.718 41.011 9.294 53.75-7.65 70.697-94.088 70.595-220.877 0.046-315.351-12.687-16.973-36.762-20.475-53.75-7.798-16.988 12.687-20.434 36.756-7.747 53.75 50.258 67.308 50.15 156.628 0.046 223.299-12.728 16.952-9.298 41.012 7.654 53.75z" />
<glyph unicode="&#xe977;" glyph-name="volume-up" data-tags="volume-up, loud, increase-sound, high-volume, louder" d="M539.197 836.401c11.53 9.221 27.346 10.994 40.653 4.6 13.297-6.397 21.75-19.845 21.75-34.6v-716.801c0-14.756-8.453-28.201-21.75-34.601-13.302-6.39-29.123-4.618-40.653 4.603l-245.497 196.398h-242.5c-21.207 0-38.399 17.193-38.4 38.4v307.201c0 21.208 17.192 38.4 38.4 38.4h242.5l245.497 196.4zM817.352 749.201c15.892 14.013 40.166 12.482 54.2-3.4 152.084-172.237 151.997-423.369 0-596.051-14.013-15.908-38.236-17.449-54.154-3.451-15.913 14.013-17.459 38.287-3.446 54.2 126.495 143.729 126.413 351.357 0 494.502-14.019 15.897-12.488 40.169 3.4 54.2zM331.2 571.601c-6.809-5.447-15.281-8.4-24-8.4h-217.6v-230.401h217.6c8.719 0 17.191-2.954 24-8.397l193.6-154.854v556.952l-193.6-154.9zM699.402 613.351c16.947 12.718 41.011 9.294 53.75-7.65 70.697-94.088 70.595-220.877 0.046-315.351-12.687-16.973-36.762-20.475-53.75-7.798-16.988 12.687-20.434 36.756-7.747 53.75 50.258 67.308 50.15 156.628 0.046 223.299-12.728 16.952-9.298 41.012 7.654 53.75z" />
<glyph unicode="&#xe978;" glyph-name="volume-off" data-tags="volume-off, mute, silent, noiseless, sound-off" d="M743.997 836.401c11.53 9.221 27.346 10.994 40.653 4.6 13.297-6.397 21.75-19.845 21.75-34.6v-716.801c0-14.756-8.453-28.201-21.75-34.601-13.307-6.39-29.123-4.618-40.653 4.603l-245.497 196.398h-242.5c-21.208 0-38.4 17.193-38.4 38.4v307.201c0 21.208 17.192 38.4 38.4 38.4h242.5l245.497 196.4zM536.003 571.601c-6.81-5.447-15.283-8.4-24.003-8.4h-217.6v-230.401h217.6c8.719 0 17.193-2.954 24.003-8.397l193.597-154.854v556.952l-193.597-154.9z" />
</font>
</defs>
</svg>
